<?xml version="1.0" encoding="UTF-8"?>
<svg id="Layer_2" data-name="Layer 2" xmlns="http://www.w3.org/2000/svg" viewBox="0 0 204.6 65.84">
  <defs>
    <style>
      .cls-1 {
        fill: #565d65;
      }

      .cls-1, .cls-2, .cls-3, .cls-4 {
        stroke-width: 0px;
      }

      .cls-2 {
        fill: #3f4966;
      }

      .cls-3 {
        fill: #404b67;
      }

      .cls-4 {
        fill: #df041d;
      }
    </style>
  </defs>
  <g id="Layer_1-2" data-name="Layer 1">
    <path class="cls-2" d="m86.8,20.85C74.95,4.66,51.71.89,33.37,6.51c-6.72,2.12-12.74,5.45-17.68,10.56-.16.16-.29.31-.56.3-3.5-.09-6.81.66-10.05,2.34,15.29-26.49,67.76-26.45,81.71,1.13Z"/>
    <g>
      <path class="cls-3" d="m41.97,21.69c-.03-.5-.23-.59-.67-.58-2.87.02-5.75,0-8.62,0h0c-3.02,0-6.03-.02-9.05,0-.11,0-.2.05-.2.18.04.37.68.22.95.33,1.52.24,2.49,1.24,2.63,2.77.28,4.69.06,9.41.12,14.11-.02,2.63.08,5.43-3.28,5.7-.15.03-.43-.09-.42.22.01.3.27.19.43.19,3.48,0,6.97,0,10.45,0,.14,0,.35.11.39-.15.03-.25-.18-.22-.33-.25-1.88-.15-3.21-1.16-3.29-3.09-.17-2.79-.04-5.58-.07-8.37,0-.2,0-.37.27-.37,3.28-.1,5.83,1,6.13,4.58.03.21-.04.5.32.47.33-.03.19-.31.19-.49.04-3.12.08-6.23.1-9.35,0-.2.18-.55-.23-.57-.37-.01-.23.32-.25.51-.2,3.26-3.19,4.4-6.09,4.28-.41.02-.46-.15-.46-.49,0-3.06,0-6.11,0-9.17,0-.36.09-.5.48-.5,3.4.05,7.59-.43,9.55,3.01.34.55.6,1.15.81,1.77.06.18.09.43.4.35.29-.08.14-.29.13-.45-.13-1.54-.29-3.08-.4-4.62Z"/>
      <path class="cls-3" d="m67.94,21.72c-.02-.52-.18-.61-.67-.61-7.52.02-15.03.01-22.55.01-.28.03-.78-.13-.78.3-.08,1.91-.18,3.82-.26,5.73,0,.15-.06.34.21.35.24,0,.24-.16.28-.32.52-2.27,1.64-4.48,4.12-5.02,1.76-.42,3.55-.42,5.34-.52.43-.02.32.27.32.49,0,5.99,0,11.97-.02,17.96.14,2.07-.96,4.03-3.2,4.08-.18.02-.54-.06-.49.29.04.29.34.14.51.14,3.5,0,7.01.01,10.51,0,.11,0,.26.02.26-.17,0-.16-.1-.2-.23-.22-2.08-.18-3.36-1.21-3.41-3.36-.13-3.09-.01-6.19-.06-8.66,0-3.74,0-6.85-.01-9.97,0-.45.09-.61.57-.58,3.68.06,8.09.28,9.11,4.62.08.29.14.59.23.88.05.15.02.39.31.36.32-.03.19-.26.18-.42-.08-1.79-.2-3.58-.25-5.36Z"/>
      <path class="cls-3" d="m21.28,37.69c-.38-.06-.29.41-.34.64-.69,3.12-2.48,5.08-5.72,5.62-4.7.79-8.64-1.51-10.13-6.02-2.46-6.64.97-18.85,9.88-16.53,3.22.88,4.64,4.13,5.65,7.03.07.34.54.38.57.11h0v-7.54s-.42,0-.42,0c0,0,0,0,0,0h-.08c-.17.02-.27.14-.33.29-.4,1.03-1.49.53-2.24.28C7.36,17.55-2.41,25.68.53,37.02c1.34,6.06,7.85,8.92,13.63,8.05,4.04-.56,6.54-2.5,7.24-6.64.04-.23.36-.67-.12-.75Z"/>
      <path class="cls-3" d="m90.37,37.51c-.18,0-.3.03-.34.25-.07.38-.16.75-.26,1.12-.96,4.65-5.67,5.92-9.84,4.84-2.37-.54-3.16-3.04-3.09-5.22.06-4.72-.19-9.46.09-14.17.2-1.49,1.07-2.44,2.55-2.72.29-.13.97.04,1.02-.33-.03-.29-.42-.15-.63-.19-3.36,0-6.72,0-10.08,0-.19.02-.54-.1-.56.18-.02.29.35.18.53.23,1.75.24,2.73,1.07,3,2.56.36,5.09.06,10.22.16,15.32.13,2.47-.61,4.73-3.46,4.76-.18.01-.25.1-.23.27.01.19.15.15.27.16,3.42.02,6.84,0,10.27,0,3.34,0,6.68,0,10.02,0,.41,0,.57-.09.58-.52.05-2.1.12-4.19.18-6.28,0-.15.06-.29-.17-.29Z"/>
    </g>
    <path class="cls-4" d="m79.67,48.7c-19.96,17.08-56.07,19.43-74.24-1.26,5.8,11.51,20.78,16.63,33.19,17.96h-.03c13.05,1.57,29.74-1.22,41.36-8.41,0,0,0,0,0,0,3.67-2.38,7.31-5,9.86-8.61-3.45.1-6.8.21-10.15.3Z"/>
    <g>
      <path class="cls-1" d="m110.73,28.57c.18.35.29.68.34,1.01-.34.15-.69.25-1.04.32-.36.06-.74.1-1.15.1-.63,0-1.2-.1-1.71-.31-.51-.21-.93-.5-1.28-.89-.35-.38-.62-.85-.8-1.4-.19-.55-.28-1.17-.28-1.86s.09-1.33.28-1.89.45-1.04.8-1.44c.35-.4.77-.7,1.28-.92s1.06-.32,1.69-.32c.46,0,.86.03,1.19.1.33.07.63.14.89.23-.02.19-.05.36-.1.52-.05.16-.11.33-.19.5-.12-.04-.24-.08-.35-.11-.11-.03-.24-.06-.36-.09-.13-.02-.27-.04-.43-.05-.16-.01-.34-.02-.54-.02-.88,0-1.57.3-2.06.9-.49.6-.73,1.46-.73,2.59,0,.58.07,1.07.21,1.49.14.42.33.77.58,1.04.25.28.55.48.9.62.35.14.75.21,1.18.21.34,0,.65-.03.92-.09.28-.06.53-.14.78-.24Z"/>
      <path class="cls-1" d="m114.91,29.99c-.49,0-.91-.08-1.28-.25-.36-.17-.67-.39-.91-.69-.24-.29-.42-.63-.54-1.03s-.18-.83-.18-1.29.06-.89.18-1.29.3-.74.54-1.03c.24-.29.55-.52.91-.69s.79-.25,1.28-.25.91.08,1.28.25.67.4.91.69c.24.29.42.64.54,1.03s.18.83.18,1.29-.06.89-.18,1.29-.3.74-.54,1.03c-.24.29-.55.52-.91.69-.36.17-.79.25-1.28.25Zm0-.96c.56,0,.97-.2,1.24-.61s.4-.97.4-1.69-.13-1.28-.4-1.68c-.27-.4-.68-.6-1.24-.6s-.97.2-1.23.6c-.26.4-.39.96-.39,1.68s.13,1.28.39,1.69.67.61,1.23.61Z"/>
      <path class="cls-1" d="m119.39,23.62c.09-.02.18-.03.26-.04s.17-.01.26-.01.17,0,.25.01.16.02.25.04c.02.12.05.28.07.48.02.2.04.37.04.5.07-.15.16-.28.27-.42.11-.13.24-.25.39-.36s.32-.19.52-.25c.19-.07.41-.1.64-.1.49,0,.86.1,1.12.3s.46.48.6.83c.08-.14.18-.28.3-.41.12-.14.25-.26.39-.36.15-.1.31-.19.5-.25.19-.07.4-.1.63-.1.72,0,1.24.2,1.57.61.33.4.49,1,.49,1.8v3.97c-.09.02-.19.03-.3.04-.11,0-.21.01-.3.01s-.19,0-.3-.01c-.11,0-.21-.02-.3-.04v-3.62c0-.56-.09-.98-.25-1.26-.17-.28-.45-.42-.84-.42-.41,0-.75.15-1,.45-.25.3-.38.74-.38,1.32v3.52c-.09.02-.19.03-.3.04-.11,0-.21.01-.3.01s-.19,0-.3-.01c-.11,0-.21-.02-.3-.04v-3.7c0-.54-.08-.95-.24-1.22-.16-.27-.42-.41-.78-.41-.2,0-.39.04-.57.13s-.33.22-.47.4c-.13.18-.24.4-.32.67-.08.27-.12.59-.12.94v3.18c-.09.02-.19.03-.3.04-.11,0-.21.01-.3.01s-.19,0-.3-.01c-.11,0-.21-.02-.3-.04v-6.23Z"/>
      <path class="cls-1" d="m130.13,24.56h-.79c-.02-.07-.03-.14-.04-.23,0-.08-.01-.17-.01-.25s0-.16.01-.25c0-.08.02-.16.04-.23h1.97v6.23c-.09.02-.19.03-.3.04-.11,0-.21.01-.3.01-.08,0-.18,0-.29-.01-.11,0-.21-.02-.3-.04v-5.28Zm-.27-2.32c-.02-.1-.03-.2-.03-.32,0-.11,0-.21,0-.3s0-.19,0-.3c0-.11.01-.21.03-.3.1-.02.22-.03.34-.04.12,0,.23-.01.32-.01s.19,0,.32.01.23.02.33.04c.02.09.03.19.03.3,0,.11,0,.22,0,.3s0,.19,0,.3-.01.22-.03.32c-.1.02-.2.03-.32.04s-.22.01-.31.01c-.1,0-.21,0-.33-.01-.12,0-.23-.02-.34-.04Z"/>
      <path class="cls-1" d="m133.49,24.58h-.95l-.05-.17,2.09-2.33h.1v1.54h1.58c.03.14.05.29.05.46,0,.09,0,.17-.01.25,0,.08-.02.16-.04.24h-1.58v2.84c0,.34.01.61.04.81.03.2.08.36.15.47.07.11.16.18.28.22s.27.05.44.05c.14,0,.27-.01.39-.03.12-.02.23-.04.33-.07.06.16.09.33.1.5.01.17.02.32.02.45-.16.04-.33.07-.51.09s-.37.03-.57.03c-.58,0-1.04-.14-1.37-.43-.33-.28-.49-.75-.49-1.41v-3.53Z"/>
      <path class="cls-1" d="m138.51,27.03c.02.68.19,1.18.53,1.49s.83.47,1.49.47c.58,0,1.12-.1,1.64-.3.06.12.12.27.16.44.04.17.06.35.07.52-.27.11-.56.2-.88.25-.32.06-.67.08-1.06.08-.57,0-1.05-.08-1.46-.24-.4-.16-.74-.38-1-.67-.26-.29-.46-.63-.58-1.02-.12-.39-.18-.82-.18-1.29s.06-.89.18-1.29c.12-.4.3-.75.54-1.04.24-.3.55-.53.92-.71.37-.17.8-.26,1.31-.26.43,0,.81.07,1.13.22.32.15.59.35.81.6s.38.56.5.91c.11.35.17.73.17,1.15,0,.11,0,.23-.01.36,0,.13-.02.23-.02.32h-4.24Zm3.09-.9c0-.23-.03-.44-.09-.65-.06-.21-.15-.39-.27-.54s-.27-.28-.45-.37-.4-.14-.65-.14c-.49,0-.87.15-1.14.45-.26.3-.42.72-.48,1.25h3.07Zm-1.3-3.5c-.09.02-.19.03-.29.04-.11,0-.22.01-.35.01-.09,0-.18,0-.27-.01-.09,0-.19-.02-.29-.04l1.4-1.54c.12-.02.25-.03.38-.04.13,0,.26-.01.4-.01.15,0,.28,0,.4.01s.24.02.35.04l-1.72,1.54Z"/>
      <path class="cls-1" d="m147.34,21.11h4.57c.02.08.03.17.04.26,0,.09.01.18.01.27s0,.18-.01.28c0,.1-.02.19-.04.27h-3.33v2.56h2.78c.02.09.03.18.04.27,0,.09.01.18.01.27s0,.18-.01.27c0,.09-.02.18-.04.27h-2.78v4c-.1.02-.2.03-.3.04-.1,0-.21.01-.32.01-.1,0-.21,0-.32-.01-.11,0-.21-.02-.3-.04v-8.73Z"/>
      <path class="cls-1" d="m153.18,23.62c.09-.02.17-.03.26-.04.08,0,.17-.01.25-.01s.18,0,.27.01c.09,0,.17.02.24.04.02.12.05.28.07.48.02.2.04.37.04.5.17-.28.39-.51.67-.72s.64-.3,1.07-.3c.06,0,.13,0,.2,0,.07,0,.13.01.18.02.02.07.03.15.04.23,0,.08.01.17.01.25,0,.1,0,.2-.02.3-.01.1-.03.21-.04.3-.06-.02-.13-.03-.2-.03h-.16c-.22,0-.43.03-.63.09s-.38.17-.53.32-.28.36-.38.63c-.09.27-.14.61-.14,1.03v3.1c-.09.02-.19.03-.3.04-.11,0-.21.01-.3.01s-.19,0-.3-.01c-.11,0-.21-.02-.31-.04v-6.23Z"/>
      <path class="cls-1" d="m160.87,25.74c0-.48-.12-.81-.36-1-.24-.19-.59-.28-1.06-.28-.28,0-.55.02-.8.07-.25.05-.49.1-.72.18-.15-.27-.23-.59-.23-.96.28-.09.58-.16.91-.21.33-.05.65-.07.96-.07.81,0,1.42.18,1.85.55s.63.96.63,1.77v3.9c-.28.07-.63.13-1.03.2-.4.07-.82.1-1.24.1-.4,0-.75-.04-1.07-.11-.32-.07-.59-.19-.81-.35s-.39-.37-.52-.62-.18-.56-.18-.91.07-.65.21-.92c.14-.26.33-.48.58-.66s.52-.3.84-.39c.32-.09.65-.13,1-.13.26,0,.47,0,.64.02s.31.03.42.04v-.23Zm0,1.18c-.12-.02-.28-.03-.46-.05-.19-.02-.34-.02-.47-.02-.5,0-.88.09-1.15.28-.26.19-.39.47-.39.85,0,.24.04.43.13.57.09.14.2.24.33.32.13.07.28.12.44.13.16.02.32.03.46.03.19,0,.38-.01.58-.03.2-.02.37-.05.53-.09v-1.98Z"/>
      <path class="cls-1" d="m163.85,23.62c.09-.02.18-.03.26-.04s.17-.01.26-.01.17,0,.25.01.16.02.25.04c.02.12.05.29.07.49.02.21.04.38.04.52.08-.14.18-.28.31-.41.13-.14.27-.26.43-.37s.35-.2.56-.27c.21-.07.44-.1.69-.1.71,0,1.24.2,1.58.61s.51,1.01.51,1.82v3.95c-.09.02-.19.03-.3.04-.11,0-.21.01-.3.01s-.19,0-.3-.01c-.11,0-.21-.02-.3-.04v-3.62c0-.58-.09-1-.27-1.27s-.46-.41-.85-.41c-.23,0-.44.04-.64.12-.2.08-.38.21-.53.38-.15.17-.28.39-.37.66-.09.27-.14.6-.14.98v3.16c-.09.02-.19.03-.3.04-.11,0-.21.01-.3.01s-.19,0-.3-.01c-.11,0-.21-.02-.3-.04v-6.23Z"/>
      <path class="cls-1" d="m175.03,28.78c.06.11.12.25.17.43.05.17.08.34.09.52-.26.09-.53.16-.81.2-.28.05-.59.07-.93.07l-.22.55s.11-.01.22-.01c.42,0,.74.1.95.29s.32.44.32.74c0,.4-.16.71-.48.91s-.75.3-1.28.3c-.11,0-.25,0-.43-.02-.17-.02-.34-.06-.5-.12,0-.11.02-.23.04-.36.02-.13.06-.24.13-.35.27.09.52.13.75.13.25,0,.45-.04.61-.13.15-.09.23-.2.23-.36,0-.16-.07-.28-.22-.34-.15-.06-.34-.1-.58-.1-.11,0-.23,0-.34.02s-.22.04-.33.06c-.02,0-.04-.03-.07-.06.15-.43.31-.84.46-1.24-.77-.15-1.34-.5-1.72-1.05-.38-.55-.57-1.26-.57-2.13,0-.46.06-.89.19-1.29s.32-.74.57-1.03c.26-.29.57-.52.95-.69s.82-.25,1.32-.25c.33,0,.63.02.9.07.27.05.52.11.75.2,0,.14-.02.3-.05.47-.04.18-.09.34-.15.47-.2-.07-.41-.12-.63-.15-.22-.04-.46-.05-.72-.05-.63,0-1.11.2-1.42.61-.32.41-.47.96-.47,1.65,0,.78.18,1.35.54,1.71.36.36.84.55,1.44.55.24,0,.47-.02.67-.05.2-.03.41-.09.63-.17Z"/>
      <path class="cls-1" d="m179.97,25.74c0-.48-.12-.81-.36-1-.24-.19-.59-.28-1.06-.28-.28,0-.55.02-.8.07-.25.05-.49.1-.72.18-.15-.27-.23-.59-.23-.96.28-.09.58-.16.91-.21.33-.05.65-.07.96-.07.81,0,1.42.18,1.85.55s.63.96.63,1.77v3.9c-.28.07-.63.13-1.03.2-.4.07-.82.1-1.24.1-.4,0-.75-.04-1.07-.11-.32-.07-.59-.19-.81-.35s-.39-.37-.52-.62-.18-.56-.18-.91.07-.65.21-.92c.14-.26.33-.48.58-.66s.52-.3.84-.39c.32-.09.65-.13,1-.13.26,0,.47,0,.64.02s.31.03.42.04v-.23Zm0,1.18c-.12-.02-.28-.03-.46-.05-.19-.02-.34-.02-.47-.02-.5,0-.88.09-1.15.28-.26.19-.39.47-.39.85,0,.24.04.43.13.57.09.14.2.24.33.32.13.07.28.12.44.13.16.02.32.03.46.03.19,0,.38-.01.58-.03.2-.02.37-.05.53-.09v-1.98Z"/>
      <path class="cls-1" d="m183.32,24.56h-.79c-.02-.07-.03-.14-.04-.23,0-.08-.01-.17-.01-.25s0-.16.01-.25c0-.08.02-.16.04-.23h1.97v6.23c-.09.02-.19.03-.3.04-.11,0-.21.01-.3.01-.08,0-.18,0-.29-.01-.11,0-.21-.02-.3-.04v-5.28Zm-.27-2.32c-.02-.1-.03-.2-.03-.32,0-.11,0-.21,0-.3s0-.19,0-.3c0-.11.01-.21.03-.3.1-.02.22-.03.34-.04.12,0,.23-.01.32-.01s.19,0,.32.01.23.02.33.04c.02.09.03.19.03.3,0,.11,0,.22,0,.3s0,.19,0,.3-.01.22-.03.32c-.1.02-.2.03-.32.04s-.22.01-.31.01c-.1,0-.21,0-.33-.01-.12,0-.23-.02-.34-.04Z"/>
      <path class="cls-1" d="m186.35,28.72c.22.09.46.16.72.21s.52.08.78.08c.19,0,.36-.02.53-.06.17-.04.32-.1.44-.18s.23-.18.3-.3c.08-.12.12-.25.12-.4,0-.16-.03-.3-.09-.4s-.14-.19-.24-.27c-.1-.07-.22-.14-.35-.19-.13-.05-.28-.1-.43-.15l-.42-.16c-.52-.2-.9-.41-1.13-.66s-.35-.57-.35-.98c0-.55.2-.99.59-1.31.39-.32.97-.49,1.73-.49.32,0,.63.03.93.09s.57.13.8.21c-.02.16-.05.32-.09.49-.04.16-.1.31-.16.45-.18-.06-.39-.13-.64-.19-.25-.06-.51-.09-.8-.09-.3,0-.56.05-.8.16-.23.11-.35.29-.35.56,0,.14.03.25.09.35.06.1.13.18.23.25s.21.13.33.18c.13.05.26.1.41.15l.53.18c.19.06.38.14.55.23s.32.2.45.33c.13.13.23.3.3.49.08.19.11.42.11.69,0,.3-.06.57-.18.82-.12.25-.29.46-.52.63-.22.18-.49.31-.81.41s-.66.15-1.04.15-.73-.03-1.02-.08-.56-.12-.81-.21c.02-.16.05-.33.1-.49.05-.17.11-.33.18-.49Z"/>
      <path class="cls-1" d="m109.06,35.52c.09-.02.19-.03.3-.04s.21-.01.29-.01c.09,0,.19,0,.3.01.11,0,.21.02.3.04v8.73c-.31.09-.65.16-1.03.23s-.81.09-1.28.09c-.44,0-.85-.05-1.24-.16-.39-.11-.73-.29-1.03-.54s-.52-.58-.69-.97c-.17-.4-.26-.89-.26-1.47,0-.5.08-.96.23-1.37.15-.41.36-.77.64-1.06s.61-.52.99-.69.81-.24,1.28-.24c.21,0,.42.02.64.05s.4.07.56.12v-2.71Zm0,3.73c-.16-.06-.34-.11-.52-.15-.19-.03-.39-.05-.61-.05-.33,0-.62.06-.86.18s-.44.29-.6.5c-.16.21-.28.46-.35.75-.08.29-.11.6-.11.94,0,.77.19,1.32.55,1.65.36.33.84.5,1.46.5.21,0,.4,0,.58-.03s.34-.05.47-.09v-4.2Z"/>
      <path class="cls-1" d="m113.08,41.6c.02.68.19,1.18.53,1.49s.83.47,1.49.47c.58,0,1.12-.1,1.64-.3.06.12.12.27.16.44.04.17.06.35.07.52-.27.11-.56.2-.88.25-.32.06-.67.08-1.06.08-.57,0-1.05-.08-1.46-.24-.4-.16-.74-.38-1-.67-.26-.29-.46-.63-.58-1.02-.12-.39-.18-.82-.18-1.29s.06-.89.18-1.29c.12-.4.3-.75.54-1.04.24-.3.55-.53.92-.71.37-.17.8-.26,1.31-.26.43,0,.81.07,1.13.22.32.15.59.35.81.6s.38.56.5.91c.11.35.17.73.17,1.15,0,.11,0,.23-.01.36,0,.13-.02.23-.02.32h-4.24Zm3.09-.9c0-.23-.03-.44-.09-.65-.06-.21-.15-.39-.27-.54s-.27-.28-.45-.37-.4-.14-.65-.14c-.49,0-.87.15-1.14.45-.26.3-.42.72-.48,1.25h3.07Z"/>
      <path class="cls-1" d="m118.82,43.29c.22.09.46.16.72.21s.52.08.78.08c.19,0,.36-.02.53-.06.17-.04.32-.1.44-.18s.23-.18.3-.3c.08-.12.12-.25.12-.4,0-.16-.03-.3-.09-.4s-.14-.19-.24-.27c-.1-.07-.22-.14-.35-.19-.13-.05-.28-.1-.43-.15l-.42-.16c-.52-.2-.9-.41-1.13-.66s-.35-.57-.35-.98c0-.55.2-.99.59-1.31.39-.32.97-.49,1.73-.49.32,0,.63.03.93.09s.57.13.8.21c-.02.16-.05.32-.09.49-.04.16-.1.31-.16.45-.18-.06-.39-.13-.64-.19-.25-.06-.51-.09-.8-.09-.3,0-.56.05-.8.16-.23.11-.35.29-.35.56,0,.14.03.25.09.35.06.1.13.18.23.25s.21.13.33.18c.13.05.26.1.41.15l.53.18c.19.06.38.14.55.23s.32.2.45.33c.13.13.23.3.3.49.08.19.11.42.11.69,0,.3-.06.57-.18.82-.12.25-.29.46-.52.63-.22.18-.49.31-.81.41s-.66.15-1.04.15-.73-.03-1.02-.08-.56-.12-.81-.21c.02-.16.05-.33.1-.49.05-.17.11-.33.18-.49Z"/>
      <path class="cls-1" d="m128.94,36.77h-2.27c-.02-.08-.03-.17-.04-.27,0-.1-.01-.19-.01-.28s0-.18.01-.27c0-.09.02-.18.04-.26h5.78c.02.08.03.17.04.25,0,.09.01.18.01.27s0,.18-.01.29c0,.1-.02.19-.04.27h-2.27v7.65c-.19.02-.39.04-.61.04s-.44-.01-.63-.04v-7.65Z"/>
      <path class="cls-1" d="m133.63,41.6c.02.68.19,1.18.53,1.49s.83.47,1.49.47c.58,0,1.12-.1,1.64-.3.06.12.12.27.16.44.04.17.06.35.07.52-.27.11-.56.2-.88.25-.32.06-.67.08-1.06.08-.57,0-1.05-.08-1.46-.24-.4-.16-.74-.38-1-.67-.26-.29-.46-.63-.58-1.02-.12-.39-.18-.82-.18-1.29s.06-.89.18-1.29c.12-.4.3-.75.54-1.04.24-.3.55-.53.92-.71.37-.17.8-.26,1.31-.26.43,0,.81.07,1.13.22.32.15.59.35.81.6s.38.56.5.91c.11.35.17.73.17,1.15,0,.11,0,.23-.01.36,0,.13-.02.23-.02.32h-4.24Zm3.09-.9c0-.23-.03-.44-.09-.65-.06-.21-.15-.39-.27-.54s-.27-.28-.45-.37-.4-.14-.65-.14c-.49,0-.87.15-1.14.45-.26.3-.42.72-.48,1.25h3.07Z"/>
      <path class="cls-1" d="m139.37,43.29c.22.09.46.16.72.21s.52.08.78.08c.19,0,.36-.02.53-.06.17-.04.32-.1.44-.18s.23-.18.3-.3c.08-.12.12-.25.12-.4,0-.16-.03-.3-.09-.4s-.14-.19-.24-.27c-.1-.07-.22-.14-.35-.19-.13-.05-.28-.1-.43-.15l-.42-.16c-.52-.2-.9-.41-1.13-.66s-.35-.57-.35-.98c0-.55.2-.99.59-1.31.39-.32.97-.49,1.73-.49.32,0,.63.03.93.09s.57.13.8.21c-.02.16-.05.32-.09.49-.04.16-.1.31-.16.45-.18-.06-.39-.13-.64-.19-.25-.06-.51-.09-.8-.09-.3,0-.56.05-.8.16-.23.11-.35.29-.35.56,0,.14.03.25.09.35.06.1.13.18.23.25s.21.13.33.18c.13.05.26.1.41.15l.53.18c.19.06.38.14.55.23s.32.2.45.33c.13.13.23.3.3.49.08.19.11.42.11.69,0,.3-.06.57-.18.82-.12.25-.29.46-.52.63-.22.18-.49.31-.81.41s-.66.15-1.04.15-.73-.03-1.02-.08-.56-.12-.81-.21c.02-.16.05-.33.1-.49.05-.17.11-.33.18-.49Z"/>
      <path class="cls-1" d="m145.24,39.15h-.95l-.05-.17,2.09-2.33h.1v1.54h1.58c.03.14.05.29.05.46,0,.09,0,.17-.01.25,0,.08-.02.16-.04.24h-1.58v2.84c0,.34.01.61.04.81.03.2.08.36.15.47.07.11.16.18.28.22s.27.05.44.05c.14,0,.27-.01.39-.03.12-.02.23-.04.33-.07.06.16.09.33.1.5.01.17.02.32.02.45-.16.04-.33.07-.51.09s-.37.03-.57.03c-.58,0-1.04-.14-1.37-.43-.33-.28-.49-.75-.49-1.41v-3.53Z"/>
      <path class="cls-1" d="m149.24,43.29c.22.09.46.16.72.21s.52.08.78.08c.19,0,.36-.02.53-.06.17-.04.32-.1.44-.18s.23-.18.3-.3c.08-.12.12-.25.12-.4,0-.16-.03-.3-.09-.4s-.14-.19-.24-.27c-.1-.07-.22-.14-.35-.19-.13-.05-.28-.1-.43-.15l-.42-.16c-.52-.2-.9-.41-1.13-.66s-.35-.57-.35-.98c0-.55.2-.99.59-1.31.39-.32.97-.49,1.73-.49.32,0,.63.03.93.09s.57.13.8.21c-.02.16-.05.32-.09.49-.04.16-.1.31-.16.45-.18-.06-.39-.13-.64-.19-.25-.06-.51-.09-.8-.09-.3,0-.56.05-.8.16-.23.11-.35.29-.35.56,0,.14.03.25.09.35.06.1.13.18.23.25s.21.13.33.18c.13.05.26.1.41.15l.53.18c.19.06.38.14.55.23s.32.2.45.33c.13.13.23.3.3.49.08.19.11.42.11.69,0,.3-.06.57-.18.82-.12.25-.29.46-.52.63-.22.18-.49.31-.81.41s-.66.15-1.04.15-.73-.03-1.02-.08-.56-.12-.81-.21c.02-.16.05-.33.1-.49.05-.17.11-.33.18-.49Z"/>
      <path class="cls-1" d="m157.85,35.69c.09-.02.18-.03.29-.04.1,0,.21-.01.32-.01.11,0,.21,0,.32.01.11,0,.21.02.3.04v7.64h3.43c.02.09.03.18.03.28,0,.1,0,.19,0,.27,0,.19-.01.38-.04.55h-4.65v-8.73Z"/>
      <path class="cls-1" d="m166.29,44.57c-.49,0-.91-.08-1.28-.25-.36-.17-.67-.39-.91-.69-.24-.29-.42-.63-.54-1.03s-.18-.83-.18-1.29.06-.89.18-1.29.3-.74.54-1.03c.24-.29.55-.52.91-.69s.79-.25,1.28-.25.91.08,1.28.25.67.4.91.69c.24.29.42.64.54,1.03s.18.83.18,1.29-.06.89-.18,1.29-.3.74-.54,1.03c-.24.29-.55.52-.91.69-.36.17-.79.25-1.28.25Zm0-.96c.56,0,.97-.2,1.24-.61s.4-.97.4-1.69-.13-1.28-.4-1.68c-.27-.4-.68-.6-1.24-.6s-.97.2-1.23.6c-.26.4-.39.96-.39,1.68s.13,1.28.39,1.69.67.61,1.23.61Z"/>
      <path class="cls-1" d="m174.05,43.62c.72.02,1.24.17,1.57.46.32.29.49.69.49,1.2,0,.33-.08.63-.25.89-.17.26-.4.49-.7.68-.3.19-.65.34-1.06.44s-.85.15-1.33.15c-.83,0-1.47-.13-1.91-.39-.44-.26-.66-.67-.66-1.23,0-.33.09-.63.27-.89s.41-.47.69-.63c-.16-.1-.3-.24-.41-.39-.11-.16-.16-.35-.16-.59,0-.3.07-.56.2-.78.13-.22.31-.41.54-.58-.27-.19-.48-.43-.64-.72s-.24-.63-.24-1c0-.31.06-.6.17-.86.11-.27.28-.5.49-.7.21-.2.48-.35.8-.47.32-.11.68-.17,1.08-.17.36,0,.69.05.99.16.3.1.55.24.76.4.16-.13.38-.24.66-.32s.58-.13.91-.13c.03.15.05.32.05.51,0,.09,0,.18-.01.28,0,.1-.02.19-.04.29h-1.09c.09.14.16.29.21.45.05.16.07.35.07.56,0,.33-.06.63-.18.9s-.29.5-.52.69c-.22.19-.49.34-.8.44-.31.1-.64.15-1.01.15-.33,0-.63-.04-.9-.11-.11.06-.22.16-.33.3-.11.13-.16.28-.16.43,0,.15.05.27.16.38s.34.17.7.18l1.62.02Zm-1.64.96c-.36,0-.64.09-.82.29s-.27.45-.27.73c0,.18.04.32.11.44.07.11.18.2.31.27.13.07.29.12.47.15s.38.04.6.04c.65,0,1.15-.11,1.52-.32s.55-.48.55-.81c0-.24-.08-.43-.23-.56s-.44-.2-.85-.21l-1.38-.02Zm.56-3.04c.44,0,.76-.12.97-.36.21-.24.32-.56.32-.94s-.11-.71-.32-.95c-.21-.25-.53-.37-.97-.37s-.76.12-.97.37c-.21.25-.31.56-.31.95s.1.69.31.94.53.36.97.36Z"/>
      <path class="cls-1" d="m177.8,39.14h-.79c-.02-.07-.03-.14-.04-.23,0-.08-.01-.17-.01-.25s0-.16.01-.25c0-.08.02-.16.04-.23h1.97v6.23c-.09.02-.19.03-.3.04-.11,0-.21.01-.3.01-.08,0-.18,0-.29-.01-.11,0-.21-.02-.3-.04v-5.28Zm-.27-2.32c-.02-.1-.03-.2-.03-.32,0-.11,0-.21,0-.3s0-.19,0-.3c0-.11.01-.21.03-.3.1-.02.22-.03.34-.04.12,0,.23-.01.32-.01s.19,0,.32.01.23.02.33.04c.02.09.03.19.03.3,0,.11,0,.22,0,.3s0,.19,0,.3-.01.22-.03.32c-.1.02-.2.03-.32.04s-.22.01-.31.01c-.1,0-.21,0-.33-.01-.12,0-.23-.02-.34-.04Z"/>
      <path class="cls-1" d="m185.08,43.34c.06.11.12.25.17.42.05.17.08.34.09.52-.48.19-1.02.28-1.64.28-1.04,0-1.82-.29-2.34-.88s-.79-1.38-.79-2.37c0-.46.06-.89.19-1.29.13-.4.32-.74.58-1.03.26-.29.57-.52.95-.69s.82-.25,1.32-.25c.34,0,.64.02.9.06s.51.1.74.19c0,.14-.02.3-.05.48s-.09.34-.15.48c-.4-.14-.85-.21-1.36-.21-.62,0-1.09.21-1.4.62-.31.41-.46.96-.46,1.64,0,.78.17,1.35.52,1.71.35.36.83.54,1.43.54.24,0,.47-.02.67-.05.21-.03.42-.09.63-.17Z"/>
      <path class="cls-1" d="m187.1,39.14h-.79c-.02-.07-.03-.14-.04-.23,0-.08-.01-.17-.01-.25s0-.16.01-.25c0-.08.02-.16.04-.23h1.97v6.23c-.09.02-.19.03-.3.04-.11,0-.21.01-.3.01-.08,0-.18,0-.29-.01-.11,0-.21-.02-.3-.04v-5.28Zm-.27-2.32c-.02-.1-.03-.2-.03-.32,0-.11,0-.21,0-.3s0-.19,0-.3c0-.11.01-.21.03-.3.1-.02.22-.03.34-.04.12,0,.23-.01.32-.01s.19,0,.32.01.23.02.33.04c.02.09.03.19.03.3,0,.11,0,.22,0,.3s0,.19,0,.3-.01.22-.03.32c-.1.02-.2.03-.32.04s-.22.01-.31.01c-.1,0-.21,0-.33-.01-.12,0-.23-.02-.34-.04Z"/>
      <path class="cls-1" d="m191.13,41.6c.02.68.19,1.18.53,1.49s.83.47,1.49.47c.58,0,1.12-.1,1.64-.3.06.12.12.27.16.44.04.17.06.35.07.52-.27.11-.56.2-.88.25-.32.06-.67.08-1.06.08-.57,0-1.05-.08-1.46-.24-.4-.16-.74-.38-1-.67-.26-.29-.46-.63-.58-1.02-.12-.39-.18-.82-.18-1.29s.06-.89.18-1.29c.12-.4.3-.75.54-1.04.24-.3.55-.53.92-.71.37-.17.8-.26,1.31-.26.43,0,.81.07,1.13.22.32.15.59.35.81.6s.38.56.5.91c.11.35.17.73.17,1.15,0,.11,0,.23-.01.36,0,.13-.02.23-.02.32h-4.24Zm3.09-.9c0-.23-.03-.44-.09-.65-.06-.21-.15-.39-.27-.54s-.27-.28-.45-.37-.4-.14-.65-.14c-.49,0-.87.15-1.14.45-.26.3-.42.72-.48,1.25h3.07Z"/>
      <path class="cls-1" d="m196.96,35.52c.09-.02.19-.03.3-.04.11,0,.21-.01.3-.01s.19,0,.3.01c.11,0,.21.02.3.04v7.02c0,.23.02.4.06.53.04.13.1.23.16.3.07.07.15.11.24.13s.19.03.3.03c.07,0,.16,0,.25-.01.09,0,.17-.02.24-.04.07.28.11.59.11.92-.11.04-.25.07-.41.08-.16.01-.31.02-.45.02-.23,0-.45-.03-.66-.08s-.38-.15-.53-.28c-.15-.13-.28-.3-.36-.52-.09-.22-.13-.49-.13-.81v-7.29Z"/>
      <path class="cls-1" d="m200.49,43.29c.22.09.46.16.72.21s.52.08.78.08c.19,0,.36-.02.53-.06.17-.04.32-.1.44-.18s.23-.18.3-.3c.08-.12.12-.25.12-.4,0-.16-.03-.3-.09-.4s-.14-.19-.24-.27c-.1-.07-.22-.14-.35-.19-.13-.05-.28-.1-.43-.15l-.42-.16c-.52-.2-.9-.41-1.13-.66s-.35-.57-.35-.98c0-.55.2-.99.59-1.31.39-.32.97-.49,1.73-.49.32,0,.63.03.93.09s.57.13.8.21c-.02.16-.05.32-.09.49-.04.16-.1.31-.16.45-.18-.06-.39-.13-.64-.19-.25-.06-.51-.09-.8-.09-.3,0-.56.05-.8.16-.23.11-.35.29-.35.56,0,.14.03.25.09.35.06.1.13.18.23.25s.21.13.33.18c.13.05.26.1.41.15l.53.18c.19.06.38.14.55.23s.32.2.45.33c.13.13.23.3.3.49.08.19.11.42.11.69,0,.3-.06.57-.18.82-.12.25-.29.46-.52.63-.22.18-.49.31-.81.41s-.66.15-1.04.15-.73-.03-1.02-.08-.56-.12-.81-.21c.02-.16.05-.33.1-.49.05-.17.11-.33.18-.49Z"/>
    </g>
  </g>
</svg>