<?xml version="1.0" encoding="UTF-8"?>
<svg xmlns="http://www.w3.org/2000/svg" xmlns:xlink="http://www.w3.org/1999/xlink" width="177px" height="60px" viewBox="0 0 177 60" version="1.1">
    <title>logo</title>
    <defs>
        <polygon id="path-1" points="-3.13190018e-14 0 13.4601624 0 13.4601624 17.824972 -3.13190018e-14 17.824972"/>
        <polygon id="path-3" points="0 40 135.882353 40 135.882353 0 0 0"/>
        <polygon id="path-5" points="1.51256543e-15 6.05026171e-15 30.1656165 6.05026171e-15 30.1656165 48.152844 1.51256543e-15 48.152844"/>
    </defs>
    <g id="home" stroke="none" stroke-width="1" fill="none" fill-rule="evenodd">
        <g id="uaestqb_home_01" transform="translate(-305.000000, -10.000000)">
            <g id="logo" transform="translate(305.000106, 10.000085)">
                <g id="text" transform="translate(41.000000, 15.000000)">
                    <path d="M14.8438953,0.572953398 L17.2028721,0.572953398 L17.2028721,10.8716792 C17.2028721,12.6631572 16.9998397,14.0857609 16.594877,15.1394905 C16.1896388,16.1934956 15.4574,17.0508044 14.3998137,17.7111416 C13.3425028,18.3717543 11.9537837,18.7023361 10.2358601,18.7023361 C8.56587093,18.7023361 7.20001703,18.414179 6.13774744,17.8392421 C5.0763043,17.2632032 4.31816998,16.430688 3.86444643,15.340319 C3.41044739,14.2493989 3.18344787,12.7606788 3.18344787,10.8716792 L3.18344787,0.572953398 L5.54214918,0.572953398 L5.54214918,10.8595578 C5.54214918,12.4077827 5.68595228,13.548841 5.97383395,14.2824571 C6.26171562,15.0163488 6.75621093,15.5810927 7.45759537,15.9786174 C8.15842883,16.3750401 9.01601318,16.5742156 10.0286955,16.5742156 C11.7636991,16.5742156 12.9995242,16.1810987 13.7375481,15.394865 C14.4752965,14.6089067 14.8438953,13.0973213 14.8438953,10.8595578 L14.8438953,0.572953398 Z" id="Fill-14" fill="#1D1D1B"/>
                    <path d="M26.8059435,11.0787611 L32.8489792,11.0787611 L30.98863,6.14179706 C30.4211312,4.64233301 29.9996394,3.41036474 29.72443,2.44616776 C29.4968795,3.58860344 29.1767661,4.72387652 28.7638143,5.8500586 L26.8059435,11.0787611 Z M21.6629167,18.3978427 L28.5084399,0.572870753 L31.0495121,0.572870753 L38.3443511,18.3978427 L35.6578228,18.3978427 L33.5781876,12.9994415 L26.1249449,12.9994415 L24.1670741,18.3978427 L21.6629167,18.3978427 Z" id="Fill-16" fill="#1D1D1B"/>
                    <polygon id="Fill-18" fill="#1D1D1B" points="43.2659155 18.3979529 43.2659155 0.572980946 56.1541989 0.572980946 56.1541989 2.67658329 45.6243413 2.67658329 45.6243413 8.13614211 55.4855972 8.13614211 55.4855972 10.2278986 45.6243413 10.2278986 45.6243413 16.2949015 56.5677017 16.2949015 56.5677017 18.3979529"/>
                    <path d="M62.5598002,12.6714217 L64.7851669,12.4766539 C64.8895757,13.3683984 65.1353081,14.0995352 65.5207115,14.6714417 C65.9055638,15.2433483 66.5033659,15.7053364 67.3138424,16.057406 C68.1243188,16.4100266 69.0364492,16.586337 70.0491315,16.586337 C70.949416,16.586337 71.7439143,16.4530023 72.4326264,16.1855065 C73.121614,15.9174597 73.6345668,15.5510649 73.9709338,15.08522 C74.3070254,14.6190996 74.4753466,14.1102791 74.4753466,13.5595849 C74.4753466,12.9992487 74.313086,12.5116405 73.9891158,12.093179 C73.6648702,11.6766459 73.1298786,11.3259537 72.3846921,11.0419288 C71.9058994,10.8554255 70.848313,10.5656155 69.2111065,10.1727741 C67.5730736,9.77993268 66.4262302,9.40885458 65.7697498,9.06009076 C64.918777,8.6138053 64.2837845,8.06173365 63.8672514,7.40001903 C63.4493408,6.73995732 63.2405233,6.00028049 63.2405233,5.18181499 C63.2405233,4.28180598 63.4956223,3.44047524 64.0066467,2.65837374 C64.5173956,1.87627224 65.2631331,1.28260238 66.2435837,0.876813191 C67.2251362,0.472125942 68.3152298,0.26881812 69.5149663,0.26881812 C70.8353652,0.26881812 72.0009417,0.482318881 73.0105936,0.90739201 C74.0196947,1.33274062 74.79546,1.95919318 75.3389916,2.78619871 C75.8816968,3.61265327 76.1739862,4.54930177 76.2144825,5.59421582 L73.9530273,5.76529191 C73.8309875,4.63828338 73.4194132,3.78703518 72.7188552,3.21209829 C72.0174707,2.63605946 70.9810967,2.34845328 69.611937,2.34845328 C68.1854764,2.34845328 67.1452456,2.61016389 66.493173,3.13248317 C65.8402739,3.65535342 65.5146508,4.28593825 65.5146508,5.02313572 C65.5146508,5.66391349 65.7452316,6.19036504 66.2072197,6.60414329 C66.6614942,7.01764606 67.8469056,7.44079079 69.7640046,7.87440395 C71.6808283,8.30801711 72.9965439,8.68735975 73.7100497,9.01160543 C74.7469747,9.48984713 75.5130981,10.0956383 76.0075934,10.8292545 C76.5018132,11.5631461 76.7486476,12.4077827 76.7486476,13.3645416 C76.7486476,14.3130359 76.4775705,15.2064333 75.9345899,16.0452847 C75.3916092,16.8844116 74.6111606,17.5373107 73.5946215,18.0031556 C72.5764295,18.4690004 71.431239,18.7023361 70.1593254,18.7023361 C68.5458106,18.7023361 67.1940065,18.467072 66.1041884,17.9970949 C65.0132684,17.5268422 64.1584389,16.8193971 63.5385979,15.8753105 C62.9184815,14.931224 62.5917565,13.8631692 62.5598002,12.6714217" id="Fill-20" fill="#7B7B7B"/>
                    <polygon id="Fill-22" fill="#7B7B7B" points="87.4946781 18.3979529 87.4946781 2.67658329 81.6221675 2.67658329 81.6221675 0.572980946 95.7509592 0.572980946 95.7509592 2.67658329 89.8539304 2.67658329 89.8539304 18.3979529"/>
                    <path d="M108.478883,13.4736611 C109.840604,13.8552077 110.963205,14.4216045 111.846961,15.1756066 C113.232925,13.9114066 113.926045,12.0105611 113.926045,9.47362107 C113.926045,8.03063141 113.680863,6.77001272 113.190776,5.69204049 C112.700137,4.61406826 111.982775,3.77714528 111.037862,3.18127154 C110.093224,2.5853978 109.033709,2.28732319 107.858766,2.28732319 C106.099245,2.28732319 104.640552,2.88953308 103.481588,4.0931264 C102.322072,5.29699521 101.742727,7.09425839 101.742727,9.48546692 C101.742727,11.803672 102.315736,13.5833041 103.463681,14.8235369 C104.609974,16.0634942 106.075553,16.6836107 107.858766,16.6836107 C108.70175,16.6836107 109.495697,16.5254823 110.241986,16.2095012 C109.504237,15.731535 108.725717,15.3910357 107.907252,15.1880034 L108.478883,13.4736611 Z M113.671221,16.4891183 C114.764896,17.2428449 115.774548,17.7949166 116.698249,18.1428539 L116.004854,19.7839172 C114.724675,19.3222046 113.447528,18.5927207 112.174788,17.5954655 C110.853838,18.3334894 109.39487,18.7023637 107.797884,18.7023637 C106.185471,18.7023637 104.721545,18.3128281 103.40886,17.5351343 C102.095623,16.7571651 101.084043,15.6621128 100.374945,14.2516304 C99.6661224,12.8414234 99.3115734,11.2532532 99.3115734,9.48546692 C99.3115734,7.72677162 99.6680508,6.12592914 100.38073,4.68266399 C101.094236,3.2402253 102.109673,2.14214267 103.426766,1.38814063 C104.743859,0.634138584 106.217428,0.256724335 107.846921,0.256724335 C109.492116,0.256724335 110.975602,0.648188311 112.296827,1.43028981 C113.617777,2.21266679 114.62495,3.30716812 115.318345,4.71324281 C116.010914,6.12014395 116.358025,7.70638574 116.358025,9.47362107 C116.358025,10.9405779 116.134607,12.2595994 115.688872,13.4312365 C115.242862,14.603149 114.570404,15.6216165 113.671221,16.4891183 L113.671221,16.4891183 Z" id="Fill-24" fill="#7B7B7B"/>
                    <g id="Group-28" transform="translate(122.422191, 0.573036)">
                        <mask id="mask-2" fill="white">
                            <use xlink:href="#path-1"/>
                        </mask>
                        <g id="Clip-27"/>
                        <path d="M2.35870131,15.7219206 L6.79703779,15.7219206 C7.55847792,15.7219206 8.09402048,15.6929947 8.40201254,15.6362448 C8.94499319,15.5392741 9.39899223,15.3770135 9.76428514,15.150014 C10.1284761,14.92329 10.4284791,14.5924327 10.6640187,14.159095 C10.8981808,13.7260328 11.0160883,13.2243749 11.0160883,12.6574271 C11.0160883,11.9926821 10.8458387,11.4152659 10.5056149,10.9246273 C10.1651156,10.4348153 9.6923836,10.0904592 9.08879628,9.89100817 C8.484658,9.69265908 7.61577877,9.59376002 6.48050569,9.59376002 L2.35870131,9.59376002 L2.35870131,15.7219206 Z M2.35870131,7.48988219 L6.2130099,7.48988219 C7.25930137,7.48988219 8.00862017,7.42101098 8.46206824,7.28299307 C9.06262522,7.10502985 9.51442038,6.80888364 9.81828017,6.39538087 C10.12214,5.98242908 10.2739321,5.46396658 10.2739321,4.83916693 C10.2739321,4.24797644 10.1323329,3.72703458 9.84913448,3.27689233 C9.56510959,2.82702556 9.15987137,2.51930898 8.63286885,2.35319162 C8.10586632,2.18679877 7.20200052,2.10332686 5.92209789,2.10332686 L2.35870131,2.10332686 L2.35870131,7.48988219 Z M-3.13190018e-14,17.824972 L-3.13190018e-14,0 L6.68794578,0 C8.04966741,0 9.14196486,0.180718064 9.96401166,0.541327737 C10.7871604,0.901661925 11.431795,1.45703939 11.8976398,2.20718464 C12.3637602,2.95677893 12.5968204,3.74108431 12.5968204,4.55927432 C12.5968204,5.3218164 12.3899313,6.03890347 11.976704,6.71191297 C11.5634767,7.38437149 10.9389526,7.92790311 10.1042335,8.3408549 C11.1819302,8.65711152 12.0108641,9.19651086 12.5907597,9.95822648 C13.1695534,10.7202176 13.4601899,11.6202266 13.4601899,12.6574271 C13.4601899,13.4924217 13.2838796,14.268738 12.93181,14.9858251 C12.5789139,15.7034631 12.1430969,16.2560857 11.6240834,16.6458968 C11.1056209,17.0346059 10.4549257,17.3279973 9.67199772,17.5271728 C8.8901717,17.7257974 7.9317599,17.824972 6.79703779,17.824972 L-3.13190018e-14,17.824972 Z" id="Fill-26" fill="#7B7B7B" mask="url(#mask-2)"/>
                    </g>
                    <path d="M6.05727831,25.9920786 L6.62036935,25.9920786 L6.62036935,28.4438938 C6.62036935,28.8706198 6.57160853,29.2089152 6.47463786,29.4598819 C6.37821816,29.7111241 6.20356077,29.9149829 5.95094116,30.0725602 C5.69859703,30.2295866 5.36746424,30.3080998 4.95699181,30.3080998 C4.55836522,30.3080998 4.23246664,30.2392285 3.97874509,30.1028635 C3.72557451,29.9659476 3.54458096,29.767323 3.43603993,29.5080917 C3.32804987,29.2477586 3.27377935,28.8937605 3.27377935,28.4438938 L3.27377935,25.9920786 L3.83659491,25.9920786 L3.83659491,28.4411389 C3.83659491,28.8100131 3.871306,29.0810902 3.93990173,29.2562986 C4.00822197,29.430405 4.12640497,29.5651171 4.29389976,29.6596084 C4.46111907,29.7546507 4.66580432,29.8017586 4.9079555,29.8017586 C5.32200924,29.8017586 5.61677803,29.7080937 5.79308834,29.520764 C5.96884767,29.3337098 6.05727831,28.9733756 6.05727831,28.4411389 L6.05727831,25.9920786 Z" id="Fill-29" fill="#FF1E00"/>
                    <polygon id="Fill-31" fill="#FF1E00" points="8.56220698 30.2354544 8.56220698 25.9921612 9.13962324 25.9921612 11.3749073 29.3235995 11.3749073 25.9921612 11.9148576 25.9921612 11.9148576 30.2354544 11.3368904 30.2354544 9.10243278 26.9007103 9.10243278 30.2354544"/>
                    <mask id="mask-4" fill="white">
                        <use xlink:href="#path-3"/>
                    </mask>
                    <g id="Clip-34"/>
                    <polygon id="Fill-33" fill="#FF1E00" mask="url(#mask-4)" points="13.7287877 30.2353993 14.2918787 30.2353993 14.2918787 25.9921061 13.7287877 25.9921061"/>
                    <polygon id="Fill-35" fill="#FF1E00" mask="url(#mask-4)" points="17.3781355 30.2354544 17.3781355 26.4929927 15.9759176 26.4929927 15.9759176 25.9921612 19.3484032 25.9921612 19.3484032 26.4929927 17.9406756 26.4929927 17.9406756 30.2354544"/>
                    <polygon id="Fill-36" fill="#FF1E00" mask="url(#mask-4)" points="20.8296301 30.2354544 20.8296301 25.9921612 23.9054185 25.9921612 23.9054185 26.4929927 21.3921702 26.4929927 21.3921702 27.7924547 23.7461883 27.7924547 23.7461883 28.2908068 21.3921702 28.2908068 21.3921702 29.7351739 24.0043176 29.7351739 24.0043176 30.2354544"/>
                    <path d="M26.3557461,29.7350637 L27.2645706,29.7350637 C27.5444633,29.7350637 27.7645757,29.7091681 27.9249078,29.6565505 C28.0841381,29.6042084 28.2116876,29.5314804 28.3061789,29.4369891 C28.4400645,29.3036544 28.5436468,29.1245893 28.6180277,28.8997936 C28.6926841,28.675549 28.7298746,28.4025435 28.7298746,28.0821546 C28.7298746,27.6388995 28.6571466,27.2972982 28.5105886,27.0587284 C28.3645817,26.820434 28.1874449,26.6606527 27.9780764,26.5796602 C27.8271107,26.5220839 27.5844086,26.4928825 27.249419,26.4928825 L26.3557461,26.4928825 L26.3557461,29.7350637 Z M25.7926551,30.2353442 L25.7926551,25.992051 L27.2582345,25.992051 C27.5896428,25.992051 27.8417114,26.0121614 28.0158178,26.0529332 C28.2598974,26.1088566 28.467613,26.210235 28.6400665,26.356793 C28.8643112,26.546051 29.0320815,26.7879268 29.1436528,27.0821446 C29.2543977,27.3766379 29.3105967,27.7127294 29.3105967,28.0906946 C29.3105967,28.4130119 29.2723043,28.6984142 29.1968214,28.947728 C29.1213386,29.1967663 29.0249189,29.4025535 28.9070113,29.5656405 C28.7888283,29.7287276 28.6593505,29.8571035 28.5194042,29.9504929 C28.3791824,30.0441577 28.2094837,30.1152328 28.0111346,30.1634427 C27.813061,30.211377 27.585235,30.2353442 27.3276567,30.2353442 L25.7926551,30.2353442 Z" id="Fill-37" fill="#FF1E00" mask="url(#mask-4)"/>
                    <path d="M34.1905078,28.4932331 L35.632671,28.4932331 L35.1888649,27.3174637 C35.0530509,26.9612618 34.9524989,26.667595 34.8869335,26.4378406 C34.832663,26.7100196 34.7560782,26.9802703 34.6574546,27.2480416 L34.1905078,28.4932331 Z M32.9626718,30.2353993 L34.5965725,25.9921061 L35.2029146,25.9921061 L36.9442544,30.2353993 L36.3029256,30.2353993 L35.8067774,28.9502625 L34.0274208,28.9502625 L33.5601984,30.2353993 L32.9626718,30.2353993 Z" id="Fill-38" fill="#039043" mask="url(#mask-4)"/>
                    <path d="M38.976396,27.8653205 L40.1874274,27.8653205 C40.4447302,27.8653205 40.6455587,27.8385984 40.7904637,27.7857053 C40.9361952,27.7322613 41.0458382,27.6474119 41.1215965,27.5308819 C41.1968039,27.4143518 41.2345453,27.2873532 41.2345453,27.1498863 C41.2345453,26.9490578 41.1618173,26.7837669 41.0158103,26.6551155 C40.8695279,26.5256376 40.638947,26.4611742 40.3232414,26.4611742 L38.976396,26.4611742 L38.976396,27.8653205 Z M38.4138559,30.2355921 L38.4138559,25.9920235 L40.3001007,25.9920235 C40.6794433,25.9920235 40.9676005,26.0305913 41.1648476,26.1066252 C41.3626458,26.1829345 41.5199476,26.3170956 41.6381306,26.510486 C41.7560381,26.7033254 41.8147164,26.9165506 41.8147164,27.1498863 C41.8147164,27.4515422 41.7174702,27.7052638 41.521876,27.9116019 C41.3268327,28.1179401 41.0246258,28.2490709 40.6166328,28.3049943 C40.7656701,28.3760694 40.8788944,28.446869 40.9563056,28.5162912 C41.1204946,28.6667059 41.276419,28.8551375 41.4232524,29.0810351 L42.1637557,30.2355921 L41.4554842,30.2355921 L40.8921176,29.3526632 C40.7279287,29.0986662 40.5918391,28.9033474 40.4863284,28.7678088 C40.3797158,28.6330968 40.2838471,28.53833 40.2000997,28.4840594 C40.1160768,28.4306154 40.030401,28.3925985 39.9425213,28.3713861 C39.8794353,28.3584384 39.7744756,28.3515512 39.6295705,28.3515512 L38.976396,28.3515512 L38.976396,30.2355921 L38.4138559,30.2355921 Z" id="Fill-39" fill="#039043" mask="url(#mask-4)"/>
                    <path d="M44.4683243,28.4932331 L45.9110384,28.4932331 L45.4666814,27.3174637 C45.3316938,26.9612618 45.2311418,26.667595 45.16475,26.4378406 C45.1110304,26.7100196 45.0349966,26.9802703 44.936373,27.2480416 L44.4683243,28.4932331 Z M43.2407637,30.2353993 L44.8749399,25.9921061 L45.4815575,25.9921061 L47.2231728,30.2353993 L46.5810176,30.2353993 L46.0851449,28.9502625 L44.3060637,28.9502625 L43.8385659,30.2353993 L43.2407637,30.2353993 Z" id="Fill-40" fill="#039043" mask="url(#mask-4)"/>
                    <path d="M49.223,29.7350637 L50.2825147,29.7350637 C50.4640592,29.7350637 50.5918842,29.7281766 50.6651632,29.7149533 C50.7954675,29.6912616 50.9034576,29.6526937 50.9905108,29.5989742 C51.077564,29.5452546 51.1494656,29.466466 51.205389,29.3628837 C51.2613124,29.2604033 51.2894119,29.1405674 51.2894119,29.0055798 C51.2894119,28.847727 51.2491911,28.7094336 51.167923,28.592628 C51.0863795,28.4760979 50.9731553,28.3945544 50.8293522,28.347171 C50.6855491,28.2997876 50.4778335,28.2758204 50.2067564,28.2758204 L49.223,28.2758204 L49.223,29.7350637 Z M49.223,27.7758154 L50.1431194,27.7758154 C50.3927087,27.7758154 50.5717738,27.7587354 50.6800394,27.7262282 C50.8232915,27.684079 50.9310061,27.6138303 51.0037341,27.5149313 C51.0759111,27.4163077 51.1119996,27.2928905 51.1119996,27.1446796 C51.1119996,27.0039069 51.078666,26.8802142 51.0106212,26.7719486 C50.9431274,26.665336 50.8464322,26.592057 50.7205356,26.5526627 C50.5946391,26.5129929 50.3792099,26.4928825 50.0736972,26.4928825 L49.223,26.4928825 L49.223,27.7758154 Z M48.6604599,30.2353442 L48.6604599,25.992051 L50.2560682,25.992051 C50.5814158,25.992051 50.8420245,26.0350266 51.0389961,26.1207024 C51.2351413,26.2066537 51.3891374,26.3391619 51.4998823,26.5174006 C51.6114537,26.6961903 51.6668261,26.8826935 51.6668261,27.0780123 C51.6668261,27.2592813 51.6175143,27.4298065 51.5188907,27.5904141 C51.4205427,27.7504708 51.2712299,27.8791223 51.0717788,27.9777458 C51.3293572,28.0535042 51.5268798,28.1810537 51.6648977,28.3631491 C51.8037421,28.5446937 51.8731643,28.7584699 51.8731643,29.0055798 C51.8731643,29.2042044 51.8312906,29.3890547 51.7464412,29.5604063 C51.6624184,29.730656 51.5582851,29.8620622 51.4340414,29.9546251 C51.3103487,30.0474635 51.1555262,30.1177122 50.969023,30.1653711 C50.7822442,30.212479 50.5538673,30.2353442 50.2825147,30.2353442 L48.6604599,30.2353442 Z" id="Fill-41" fill="#039043" mask="url(#mask-4)"/>
                    <polygon id="Fill-42" fill="#1D1D1B" mask="url(#mask-4)" points="56.3315285 30.2354544 56.3315285 25.9921612 59.4084188 25.9921612 59.4084188 26.4929927 56.8951705 26.4929927 56.8951705 27.7924547 59.2486376 27.7924547 59.2486376 28.2908068 56.8951705 28.2908068 56.8951705 29.7351739 59.5067669 29.7351739 59.5067669 30.2354544"/>
                    <path d="M61.2776111,30.2354544 L61.2776111,25.9921612 L62.125278,25.9921612 L63.1324506,28.996599 C63.2250135,29.2767671 63.2930583,29.4861356 63.3357584,29.62498 C63.3842438,29.4707084 63.4597266,29.2439844 63.562207,28.9445324 L64.58095,25.9921612 L65.3382578,25.9921612 L65.3382578,30.2354544 L64.7952772,30.2354544 L64.7952772,26.6839037 L63.5591767,30.2354544 L63.0509071,30.2354544 L61.8211427,26.6230215 L61.8211427,30.2354544 L61.2776111,30.2354544 Z" id="Fill-43" fill="#1D1D1B" mask="url(#mask-4)"/>
                    <polygon id="Fill-44" fill="#1D1D1B" mask="url(#mask-4)" points="67.3527408 30.2353993 67.9161073 30.2353993 67.9161073 25.9921061 67.3527408 25.9921061"/>
                    <path d="M70.3718344,27.8653205 L71.5823149,27.8653205 C71.8396177,27.8653205 72.0404462,27.8385984 72.1859022,27.7857053 C72.3310827,27.7322613 72.4412766,27.6474119 72.516484,27.5308819 C72.5925178,27.4143518 72.6294328,27.2873532 72.6294328,27.1498863 C72.6294328,26.9490578 72.5564293,26.7837669 72.4106978,26.6551155 C72.2649663,26.5256376 72.0338345,26.4611742 71.7184044,26.4611742 L70.3718344,26.4611742 L70.3718344,27.8653205 Z M69.8087434,30.2355921 L69.8087434,25.9920235 L71.6952637,25.9920235 C72.0748818,25.9920235 72.3627635,26.0305913 72.5600106,26.1066252 C72.7580842,26.1829345 72.9151106,26.3170956 73.0330181,26.510486 C73.1514766,26.7033254 73.2104304,26.9165506 73.2104304,27.1498863 C73.2104304,27.4515422 73.1126332,27.7052638 72.9167635,27.9116019 C72.7214447,28.1179401 72.4197888,28.2490709 72.0115203,28.3049943 C72.1608331,28.3760694 72.2735064,28.446869 72.3514686,28.5162912 C72.5153821,28.6667059 72.671582,28.8551375 72.8184154,29.0810351 L73.5583677,30.2355921 L72.8506471,30.2355921 L72.2875561,29.3526632 C72.1225407,29.0986662 71.9875531,28.9033474 71.8809405,28.7678088 C71.7746033,28.6330968 71.6792855,28.53833 71.5952627,28.4840594 C71.5106888,28.4306154 71.4252885,28.3925985 71.3385108,28.3713861 C71.2743228,28.3584384 71.1696386,28.3515512 71.0247335,28.3515512 L70.3718344,28.3515512 L70.3718344,30.2355921 L69.8087434,30.2355921 Z" id="Fill-45" fill="#1D1D1B" mask="url(#mask-4)"/>
                    <path d="M75.8629638,28.4932331 L77.3065044,28.4932331 L76.8618719,27.3174637 C76.7268843,26.9612618 76.6263323,26.667595 76.5599405,26.4378406 C76.5064964,26.7100196 76.4299116,26.9802703 76.3312881,27.2480416 L75.8629638,28.4932331 Z M74.6359543,30.2353993 L76.2698549,25.9921061 L76.8770236,25.9921061 L78.6180878,30.2353993 L77.9770346,30.2353993 L77.4797844,28.9502625 L75.7007032,28.9502625 L75.2343074,30.2353993 L74.6359543,30.2353993 Z" id="Fill-46" fill="#1D1D1B" mask="url(#mask-4)"/>
                    <polygon id="Fill-47" fill="#1D1D1B" mask="url(#mask-4)" points="80.4474726 30.2354544 80.4474726 26.4929927 79.0460811 26.4929927 79.0460811 25.9921612 82.4180157 25.9921612 82.4180157 26.4929927 81.0102881 26.4929927 81.0102881 30.2354544"/>
                    <polygon id="Fill-48" fill="#1D1D1B" mask="url(#mask-4)" points="84.0180317 30.2354544 84.0180317 25.9921612 87.0940956 25.9921612 87.0940956 26.4929927 84.5808473 26.4929927 84.5808473 27.7924547 86.9351408 27.7924547 86.9351408 28.2908068 84.5808473 28.2908068 84.5808473 29.7351739 87.1927192 29.7351739 87.1927192 30.2354544"/>
                    <path d="M88.7900355,28.8725482 L89.3208948,28.8265422 C89.3465149,29.038941 89.4051931,29.2124965 89.4966541,29.349137 C89.5889415,29.4846755 89.7310917,29.5943185 89.9242066,29.6788924 C90.1181479,29.7626397 90.3360565,29.8047889 90.5773812,29.8047889 C90.7925349,29.8047889 90.9826194,29.7728327 91.1468084,29.7091957 C91.3112728,29.6452832 91.4333126,29.55823 91.5140297,29.4469341 C91.5939203,29.3356382 91.6346921,29.2147004 91.6346921,29.084396 C91.6346921,28.9502349 91.5955732,28.8345313 91.5184374,28.7348058 C91.4410262,28.6356312 91.3134767,28.5518838 91.1355135,28.4841145 C91.0211873,28.440037 90.7688432,28.3714412 90.3776547,28.2780519 C89.9870172,28.1838361 89.7131852,28.0954054 89.5561588,28.0124845 C89.352851,27.9066983 89.2018853,27.774741 89.1024353,27.6177147 C89.0027098,27.4604128 88.9525715,27.284378 88.9525715,27.0890592 C88.9525715,26.874732 89.0137292,26.6750055 89.1354935,26.4887777 C89.2572578,26.30255 89.435221,26.1609508 89.6693831,26.0645311 C89.9032698,25.9678359 90.1633275,25.9193506 90.4498317,25.9193506 C90.7655373,25.9193506 91.0435016,25.9711417 91.2845508,26.0714182 C91.5256001,26.1730721 91.7112768,26.3218339 91.8396528,26.5193566 C91.9696816,26.7157773 92.0391038,26.93892 92.0495722,27.1876828 L91.5098974,27.2276281 C91.480696,26.9604078 91.381797,26.7573755 91.2148531,26.6199085 C91.0476338,26.4829926 90.799973,26.4146723 90.4729724,26.4146723 C90.1327486,26.4146723 89.8848123,26.4769319 89.7291633,26.6014511 C89.5729634,26.7256947 89.4955522,26.875834 89.4955522,27.0518688 C89.4955522,27.2036609 89.5500982,27.3295575 89.6605676,27.4284566 C89.7691086,27.5259782 90.0517561,27.6279076 90.5090609,27.730388 C90.9671923,27.8339703 91.281245,27.9240538 91.4512191,28.0014651 C91.69888,28.1149648 91.8823529,28.2593189 91.9997095,28.4334253 C92.117617,28.6083582 92.1771217,28.8100131 92.1771217,29.0378391 C92.1771217,29.2629102 92.1121073,29.47586 91.9829049,29.675862 C91.8531515,29.8753131 91.6663728,30.0306865 91.4244971,30.1419824 C91.1809685,30.2527273 90.9076875,30.3080998 90.6038277,30.3080998 C90.2189754,30.3080998 89.8963826,30.2521763 89.6363249,30.140054 C89.3757163,30.0276562 89.1718575,29.8601614 89.0239221,29.6350903 C88.8759867,29.4100191 88.797749,29.1560221 88.7900355,28.8725482" id="Fill-49" fill="#1D1D1B" mask="url(#mask-4)"/>
                    <path d="M96.3077692,28.8725482 L96.8394549,28.8265422 C96.8645241,29.038941 96.9229269,29.2124965 97.0143878,29.349137 C97.1066752,29.4846755 97.2491009,29.5943185 97.4430423,29.6788924 C97.6367081,29.7626397 97.8540657,29.8047889 98.0953904,29.8047889 C98.311095,29.8047889 98.5000776,29.7728327 98.6645421,29.7091957 C98.8295575,29.6452832 98.9518728,29.55823 99.0317634,29.4469341 C99.1124805,29.3356382 99.1524258,29.2147004 99.1524258,29.084396 C99.1524258,28.9502349 99.1135824,28.8345313 99.0367221,28.7348058 C98.9593109,28.6356312 98.8314859,28.5518838 98.6532472,28.4841145 C98.538921,28.440037 98.2868524,28.3714412 97.8956639,28.2780519 C97.5047509,28.1838361 97.2311944,28.0954054 97.074168,28.0124845 C96.8714112,27.9066983 96.719619,27.774741 96.620169,27.6177147 C96.520168,27.4604128 96.4711317,27.284378 96.4711317,27.0890592 C96.4711317,26.874732 96.5314629,26.6750055 96.6532272,26.4887777 C96.775267,26.30255 96.9529547,26.1609508 97.1876678,26.0645311 C97.4218299,25.9678359 97.6818876,25.9193506 97.9675654,25.9193506 C98.2840975,25.9193506 98.5617862,25.9711417 98.80256,26.0714182 C99.0438847,26.1730721 99.2287351,26.3218339 99.358213,26.5193566 C99.4876908,26.7157773 99.5573885,26.93892 99.5670305,27.1876828 L99.0276311,27.2276281 C98.9984297,26.9604078 98.9000816,26.7573755 98.7325869,26.6199085 C98.565643,26.4829926 98.3179821,26.4146723 97.9912571,26.4146723 C97.6507578,26.4146723 97.402546,26.4769319 97.2471725,26.6014511 C97.0912481,26.7256947 97.0132859,26.875834 97.0132859,27.0518688 C97.0132859,27.2036609 97.0686583,27.3295575 97.1785768,27.4284566 C97.2873933,27.5259782 97.5700408,27.6279076 98.0276211,27.730388 C98.484926,27.8339703 98.7995297,27.9240538 98.9692283,28.0014651 C99.2171647,28.1149648 99.4003621,28.2593189 99.5177187,28.4334253 C99.6359017,28.6083582 99.6951309,28.8100131 99.6951309,29.0378391 C99.6951309,29.2629102 99.630943,29.47586 99.5009141,29.675862 C99.3708853,29.8753131 99.184382,30.0306865 98.9422308,30.1419824 C98.6989777,30.2527273 98.4254212,30.3080998 98.1218369,30.3080998 C97.7369846,30.3080998 97.4141163,30.2521763 97.1543341,30.140054 C96.8937255,30.0276562 96.6895912,29.8601614 96.5419313,29.6350903 C96.393445,29.4100191 96.3157582,29.1560221 96.3077692,28.8725482" id="Fill-50" fill="#7B7B7B" mask="url(#mask-4)"/>
                    <path d="M101.765289,28.1776652 C101.765289,28.6889651 101.903032,29.0922749 102.178792,29.3862172 C102.454553,29.6804351 102.800286,29.8278195 103.216268,29.8278195 C103.639964,29.8278195 103.988728,29.6787822 104.262284,29.382085 C104.535841,29.0851123 104.673583,28.663345 104.673583,28.116783 C104.673583,27.7710495 104.614629,27.4696691 104.497273,27.2123663 C104.380192,26.9547879 104.209116,26.7550614 103.983769,26.6129112 C103.758147,26.4715875 103.505252,26.4007879 103.224808,26.4007879 C102.826457,26.4007879 102.482927,26.5368774 102.195872,26.8104339 C101.907991,27.0828884 101.765289,27.5390913 101.765289,28.1776652 M101.184843,28.1691252 C101.184843,27.4644349 101.37355,26.9129142 101.753444,26.5142876 C102.132786,26.116212 102.622047,25.9170365 103.221502,25.9170365 C103.614344,25.9170365 103.968893,26.0107013 104.284323,26.1977555 C104.599202,26.3853607 104.839976,26.6459694 105.005542,26.9801325 C105.170558,27.3153976 105.253754,27.6952912 105.253754,28.1198134 C105.253754,28.5503962 105.166976,28.9349731 104.992319,29.2746459 C104.818213,29.6145942 104.571378,29.8716216 104.251816,30.046279 C103.932804,30.2209363 103.588173,30.3079896 103.218747,30.3079896 C102.818193,30.3079896 102.460338,30.2112944 102.144908,30.0187305 C101.829753,29.8256156 101.590357,29.5622521 101.42782,29.2283644 C101.266111,28.8950277 101.184843,28.5415807 101.184843,28.1691252" id="Fill-51" fill="#7B7B7B" mask="url(#mask-4)"/>
                    <polygon id="Fill-52" fill="#7B7B7B" mask="url(#mask-4)" points="106.899666 30.2354544 106.899666 25.9921612 109.770494 25.9921612 109.770494 26.4929927 107.462481 26.4929927 107.462481 27.8070554 109.459471 27.8070554 109.459471 28.3078869 107.462481 28.3078869 107.462481 30.2354544"/>
                    <polygon id="Fill-53" fill="#7B7B7B" mask="url(#mask-4)" points="112.594737 30.2354544 112.594737 26.4929927 111.192519 26.4929927 111.192519 25.9921612 114.565555 25.9921612 114.565555 26.4929927 113.157552 26.4929927 113.157552 30.2354544"/>
                    <path d="M116.89624,30.2354544 L115.767303,25.9921612 L116.344995,25.9921612 L116.99266,28.7740073 C117.062082,29.0657457 117.121862,29.3547293 117.172276,29.6428865 C117.280266,29.188612 117.344729,28.9269013 117.363738,28.8574792 L118.173663,25.9921612 L118.852458,25.9921612 L119.462381,28.1398411 C119.615,28.6723533 119.725469,29.1734603 119.792963,29.6428865 C119.846958,29.3737378 119.918033,29.0665722 120.004811,28.7186348 L120.672586,25.9921612 L121.238432,25.9921612 L120.071478,30.2354544 L119.529049,30.2354544 L118.632345,27.0026396 C118.556312,26.7321135 118.511959,26.5668226 118.497909,26.504563 C118.454107,26.6993308 118.412784,26.8657237 118.373941,27.0026396 L117.471177,30.2354544 L116.89624,30.2354544 Z" id="Fill-54" fill="#7B7B7B" mask="url(#mask-4)"/>
                    <path d="M123.177763,28.4932331 L124.620202,28.4932331 L124.176671,27.3174637 C124.041408,26.9612618 123.940856,26.667595 123.873913,26.4378406 C123.820469,26.7100196 123.74416,26.9802703 123.645261,27.2480416 L123.177763,28.4932331 Z M121.950202,30.2353993 L123.584379,25.9921061 L124.190996,25.9921061 L125.932611,30.2353993 L125.290732,30.2353993 L124.794583,28.9502625 L123.015778,28.9502625 L122.548004,30.2353993 L121.950202,30.2353993 Z" id="Fill-55" fill="#7B7B7B" mask="url(#mask-4)"/>
                    <path d="M127.964588,27.8653205 L129.174517,27.8653205 C129.432095,27.8653205 129.634026,27.8385984 129.778655,27.7857053 C129.92356,27.7322613 130.03403,27.6474119 130.109788,27.5308819 C130.18472,27.4143518 130.222462,27.2873532 130.222462,27.1498863 C130.222462,26.9490578 130.149458,26.7837669 130.003451,26.6551155 C129.856893,26.5256376 129.626037,26.4611742 129.310882,26.4611742 L127.964588,26.4611742 L127.964588,27.8653205 Z M127.400946,30.2355921 L127.400946,25.9920235 L129.287741,25.9920235 C129.666809,25.9920235 129.955517,26.0305913 130.152764,26.1066252 C130.350287,26.1829345 130.508415,26.3170956 130.626047,26.510486 C130.743679,26.7033254 130.803184,26.9165506 130.803184,27.1498863 C130.803184,27.4515422 130.705386,27.7052638 130.510068,27.9116019 C130.314473,28.1179401 130.012542,28.2490709 129.604274,28.3049943 C129.753035,28.3760694 129.865709,28.446869 129.943946,28.5162912 C130.108411,28.6667059 130.263509,28.8551375 130.411444,29.0810351 L131.151121,30.2355921 L130.442574,30.2355921 L129.880034,29.3526632 C129.715294,29.0986662 129.580031,28.9033474 129.473418,28.7678088 C129.367081,28.6330968 129.272039,28.53833 129.187465,28.4840594 C129.103993,28.4306154 129.018042,28.3925985 128.931264,28.3713861 C128.867076,28.3584384 128.762392,28.3515512 128.617487,28.3515512 L127.964588,28.3515512 L127.964588,30.2355921 L127.400946,30.2355921 Z" id="Fill-56" fill="#7B7B7B" mask="url(#mask-4)"/>
                    <polygon id="Fill-57" fill="#7B7B7B" mask="url(#mask-4)" points="132.70728 30.2354544 132.70728 25.9921612 135.783619 25.9921612 135.783619 26.4929927 133.270095 26.4929927 133.270095 27.7924547 135.624664 27.7924547 135.624664 28.2908068 133.270095 28.2908068 133.270095 29.7351739 135.882243 29.7351739 135.882243 30.2354544"/>
                    <polygon id="Fill-58" fill="#7B7B7B" mask="url(#mask-4)" points="4.5851699 39.2476383 4.5851699 35.5049011 3.18350297 35.5049011 3.18350297 35.0040697 6.55571305 35.0040697 6.55571305 35.5049011 5.14798545 35.5049011 5.14798545 39.2476383"/>
                    <polygon id="Fill-59" fill="#7B7B7B" mask="url(#mask-4)" points="8.39314193 39.2476383 8.39314193 35.0040697 11.4697568 35.0040697 11.4697568 35.5049011 8.95623297 35.5049011 8.95623297 36.8043632 11.310251 36.8043632 11.310251 37.3021643 8.95623297 37.3021643 8.95623297 38.7468069 11.5686558 38.7468069 11.5686558 39.2476383"/>
                    <path d="M13.4029717,37.8841812 L13.933831,37.8378997 C13.9589002,38.0502985 14.0175784,38.2246804 14.1093149,38.360219 C14.2016023,38.496033 14.344579,38.6065024 14.5376938,38.6905253 C14.7308087,38.7739972 14.9489927,38.8164219 15.1908684,38.8164219 C15.4054711,38.8164219 15.5947292,38.7841902 15.7597447,38.7208287 C15.9236581,38.6574671 16.0465244,38.5695875 16.126415,38.4588426 C16.2065811,38.3478222 16.2473528,38.2263333 16.2473528,38.095478 C16.2473528,37.9621434 16.2085095,37.8456133 16.1310982,37.7464387 C16.053687,37.6478152 15.9255865,37.5643432 15.7481743,37.4962985 C15.6338481,37.4519454 15.3812285,37.3827987 14.9905909,37.2894094 C14.5996779,37.19602 14.3261215,37.1073139 14.1693706,37.0246684 C13.9657873,36.9183313 13.8145461,36.786925 13.7148206,36.6290722 C13.6150951,36.4720458 13.5655078,36.2957355 13.5655078,36.1009677 C13.5655078,35.8866405 13.6263899,35.686914 13.7481543,35.5006862 C13.870194,35.3147339 14.0484327,35.1725837 14.2820439,35.076164 C14.5164815,34.9800198 14.7762637,34.9315345 15.0630435,34.9315345 C15.3779226,34.9315345 15.6564378,34.9822237 15.8974871,35.0836021 C16.1382608,35.1847051 16.3239376,35.3337424 16.45314,35.5307141 C16.5831689,35.7276857 16.6525911,35.950553 16.6625085,36.1995913 L16.1220072,36.2400876 C16.0933568,35.9720408 15.9950087,35.7695594 15.8275139,35.631817 C15.6605701,35.494901 15.4134602,35.4260298 15.0861842,35.4260298 C14.7454094,35.4260298 14.4974731,35.4888404 14.3418241,35.6133595 C14.1861752,35.7378787 14.1079375,35.8877424 14.1079375,36.0635018 C14.1079375,36.2161204 14.1633099,36.3411905 14.2735039,36.4398141 C14.3817694,36.5387131 14.6646924,36.6389896 15.1222727,36.742021 C15.5806795,36.8453278 15.8939058,36.9359623 16.0647064,37.0125471 C16.3120918,37.1268733 16.4944628,37.2706764 16.6131967,37.4456093 C16.7311042,37.6208176 16.7897825,37.8216461 16.7897825,38.0494721 C16.7897825,38.2748187 16.7250436,38.487493 16.5950147,38.687495 C16.4658123,38.8872215 16.2795846,39.0428705 16.0368824,39.1530644 C15.7939048,39.2643603 15.5206238,39.3200082 15.217315,39.3200082 C14.8316362,39.3200082 14.5090434,39.2643603 14.2489857,39.1519625 C13.9886525,39.0401156 13.7847937,38.8712434 13.6363074,38.6472742 C13.4886475,38.4219276 13.4104098,38.1679306 13.4029717,37.8841812" id="Fill-60" fill="#7B7B7B" mask="url(#mask-4)"/>
                    <polygon id="Fill-61" fill="#7B7B7B" mask="url(#mask-4)" points="19.8899238 39.2476383 19.8899238 35.5049011 18.4885323 35.5049011 18.4885323 35.0040697 21.8607424 35.0040697 21.8607424 35.5049011 20.4530148 35.5049011 20.4530148 39.2476383"/>
                    <polygon id="Fill-62" fill="#7B7B7B" mask="url(#mask-4)" points="23.7823319 39.2476108 24.3456984 39.2476108 24.3456984 35.0040421 23.7823319 35.0040421"/>
                    <polygon id="Fill-63" fill="#7B7B7B" mask="url(#mask-4)" points="26.5805142 39.2476383 26.5805142 35.0040697 27.1579305 35.0040697 29.3926636 38.3357835 29.3926636 35.0040697 29.9328894 35.0040697 29.9328894 39.2476383 29.3549222 39.2476383 27.1204645 35.9128942 27.1204645 39.2476383"/>
                    <path d="M34.1180002,37.5834068 L34.1180002,37.0850547 L35.9204976,37.0822998 L35.9204976,38.6575222 C35.6439108,38.8768082 35.3579575,39.0429255 35.0640152,39.1531195 C34.7700728,39.2644154 34.4681414,39.3200633 34.1587719,39.3200633 C33.7405859,39.3200633 33.3612433,39.2308062 33.0199176,39.052292 C32.6774899,38.8735024 32.4199115,38.6153731 32.2460806,38.2779041 C32.0716987,37.9404352 31.9851964,37.5632964 31.9851964,37.1462123 C31.9851964,36.7327096 32.0716987,36.3473063 32.2449787,35.9900024 C32.4179832,35.6313211 32.6664705,35.3657537 32.9918181,35.1921983 C33.3168902,35.0189183 33.6909987,34.9315896 34.1149698,34.9315896 C34.4229619,34.9315896 34.7006506,34.9814524 34.9494135,35.0809024 C35.1979008,35.1800769 35.3932196,35.3183703 35.5342678,35.4955071 C35.6755915,35.6737458 35.7827551,35.9051531 35.8565851,36.1905554 L35.3483155,36.3296752 C35.284403,36.1136951 35.2056144,35.9434455 35.1105721,35.8203037 C35.0158053,35.6968865 34.8799913,35.5979875 34.7042319,35.5241575 C34.5287481,35.4495011 34.3328784,35.4120352 34.1180002,35.4120352 C33.8609728,35.4120352 33.6378301,35.4514295 33.4507759,35.5296672 C33.2626197,35.6073539 33.1113785,35.7098343 32.9962259,35.8379348 C32.8807977,35.9649333 32.7912651,36.1048796 32.7279036,36.2580492 C32.6190871,36.5200353 32.565643,36.8043356 32.565643,37.1109503 C32.565643,37.4894665 32.630382,37.8057231 32.7609618,38.060822 C32.8920926,38.3156455 33.0816262,38.5049036 33.3314909,38.6277699 C33.5813557,38.7514626 33.8460966,38.8134467 34.1265402,38.8134467 C34.3706198,38.8134467 34.6080877,38.7671652 34.840597,38.6732249 C35.0731062,38.5798355 35.24859,38.479559 35.3692524,38.3732219 L35.3692524,37.5834068 L34.1180002,37.5834068 Z" id="Fill-64" fill="#7B7B7B" mask="url(#mask-4)"/>
                    <path d="M42.883212,38.0754778 C43.2085596,38.1658369 43.4763308,38.3008245 43.6870768,38.4807161 C44.0182095,38.1790601 44.1835005,37.7275405 44.1835005,37.1228512 C44.1835005,36.7790461 44.1250977,36.4790431 44.0082921,36.2222912 C43.8909355,35.9658148 43.7198595,35.7666393 43.4942374,35.6247646 C43.2688907,35.4831654 43.0157202,35.4120903 42.7352766,35.4120903 C42.3154377,35.4120903 41.9672248,35.5553424 41.690638,35.8421221 C41.4140512,36.1289019 41.2754823,36.5567298 41.2754823,37.126157 C41.2754823,37.6782287 41.4123983,38.1019244 41.6859548,38.3966932 C41.9597867,38.6911865 42.3096525,38.8393973 42.7352766,38.8393973 C42.936656,38.8393973 43.1264651,38.8019314 43.3047038,38.7264485 C43.1283935,38.6129488 42.9424412,38.5311298 42.7471224,38.4829199 L42.883212,38.0754778 Z M44.1231693,38.7928404 C44.3835025,38.9724565 44.6251027,39.1038628 44.845766,39.1867837 L44.6801997,39.5774213 C44.3744115,39.4675028 44.0694497,39.2942228 43.7658654,39.0570304 C43.4507108,39.2319633 43.1022224,39.3201184 42.7209514,39.3201184 C42.3363745,39.3201184 41.9867842,39.2270045 41.6732825,39.0418787 C41.3600562,38.8564774 41.118456,38.5966952 40.9493083,38.2606037 C40.7796096,37.9245121 40.6947603,37.5465469 40.6947603,37.126157 C40.6947603,36.7071446 40.7801606,36.326149 40.9501347,35.9823439 C41.1203844,35.6388143 41.362811,35.3773792 41.6774147,35.1977631 C41.9920185,35.0186979 42.3435371,34.9286144 42.7330727,34.9286144 C43.1253631,34.9286144 43.4799121,35.0217282 43.7950668,35.207956 C44.1096705,35.3941838 44.3504443,35.6547924 44.5160107,35.9900575 C44.6815771,36.3242206 44.763947,36.7027368 44.763947,37.1228512 C44.763947,37.4724415 44.7107785,37.7864942 44.6044413,38.0658359 C44.4981042,38.3446265 44.3374965,38.5865022 44.1231693,38.7928404 L44.1231693,38.7928404 Z" id="Fill-65" fill="#7B7B7B" mask="url(#mask-4)"/>
                    <path d="M49.5625075,35.003987 L50.1250476,35.003987 L50.1250476,37.4555267 C50.1250476,37.8822528 50.0762868,38.2210991 49.9801426,38.4723413 C49.8831719,38.7227571 49.7085145,38.9268913 49.4558949,39.0841932 C49.2038262,39.2409441 48.8721425,39.3200082 48.462221,39.3200082 C48.0635944,39.3200082 47.7374204,39.2508615 47.4839743,39.114221 C47.2305282,38.9773051 47.0500857,38.7792314 46.9409936,38.5194492 C46.8330036,38.2599425 46.7787331,37.9053935 46.7787331,37.4555267 L46.7787331,35.003987 L47.3420996,35.003987 L47.3420996,37.4533228 C47.3420996,37.8219216 47.3762597,38.0929987 47.44458,38.2679316 C47.5137267,38.4423135 47.6316342,38.5767501 47.7988535,38.6715169 C47.9663483,38.7657327 48.171309,38.8133916 48.4129092,38.8133916 C48.8272384,38.8133916 49.1217317,38.7197267 49.2977666,38.532397 C49.4738014,38.3450673 49.5625075,37.9855596 49.5625075,37.4533228 L49.5625075,35.003987 Z" id="Fill-66" fill="#7B7B7B" mask="url(#mask-4)"/>
                    <path d="M53.0711653,37.5048661 L54.5133285,37.5048661 L54.0695224,36.3296477 C53.9339838,35.9728948 53.8334318,35.6795034 53.767591,35.4494736 C53.7135959,35.7222036 53.6372866,35.9921787 53.538663,36.25995 L53.0711653,37.5048661 Z M51.8430538,39.2475832 L53.4780564,35.0040146 L54.0843985,35.0040146 L55.8254628,39.2475832 L55.1835831,39.2475832 L54.6874349,37.9621709 L52.9083537,37.9621709 L52.4414069,39.2475832 L51.8430538,39.2475832 Z" id="Fill-67" fill="#7B7B7B" mask="url(#mask-4)"/>
                    <polygon id="Fill-68" fill="#7B7B7B" mask="url(#mask-4)" points="57.6199161 39.2476383 57.6199161 35.0040697 58.1821806 35.0040697 58.1821806 38.7468069 60.2775184 38.7468069 60.2775184 39.2476383"/>
                    <polygon id="Fill-69" fill="#7B7B7B" mask="url(#mask-4)" points="62.6493879 39.2476108 63.2116525 39.2476108 63.2116525 35.0040421 62.6493879 35.0040421"/>
                    <polygon id="Fill-70" fill="#7B7B7B" mask="url(#mask-4)" points="65.4817028 39.2476383 65.4817028 35.0040697 68.352255 35.0040697 68.352255 35.5049011 66.0445184 35.5049011 66.0445184 36.8189639 68.042059 36.8189639 68.042059 37.3197953 66.0445184 37.3197953 66.0445184 39.2476383"/>
                    <polygon id="Fill-71" fill="#7B7B7B" mask="url(#mask-4)" points="70.4277028 39.2476108 70.9905183 39.2476108 70.9905183 35.0040421 70.4277028 35.0040421"/>
                    <path d="M76.2678715,37.759359 L76.830687,37.9015092 C76.712504,38.3629463 76.5003807,38.714465 76.1932151,38.9568916 C75.8866004,39.1987673 75.5122165,39.3199807 75.0689614,39.3199807 C74.6100036,39.3199807 74.2378236,39.2268668 73.9499419,39.0403635 C73.6628867,38.8546867 73.4441517,38.5844361 73.2940125,38.23154 C73.1438732,37.8783684 73.0692168,37.4995768 73.0692168,37.0937876 C73.0692168,36.6519099 73.1535152,36.266782 73.3226629,35.9378531 C73.492637,35.6083732 73.7331353,35.358784 74.0455351,35.1879834 C74.3584859,35.0171827 74.702291,34.931507 75.0777769,34.931507 C75.503401,34.931507 75.8609803,35.0397725 76.1510659,35.2560281 C76.4414269,35.4722837 76.6441838,35.7761435 76.757959,36.167883 L76.203408,36.2979118 C76.1047844,35.9888178 75.9620833,35.7642977 75.7739271,35.6232494 C75.5863219,35.4824767 75.3502314,35.412228 75.065931,35.412228 C74.7389305,35.412228 74.4653741,35.4904657 74.2458126,35.6469411 C74.0262512,35.8028655 73.8722552,36.0130605 73.7827226,36.2761485 C73.693741,36.539512 73.6493879,36.8111401 73.6493879,37.0910327 C73.6493879,37.4519179 73.7020055,37.7670725 73.8075162,38.0359458 C73.9133024,38.30537 74.0777669,38.5061984 74.2998077,38.6395331 C74.5223994,38.7731432 74.7626222,38.8395351 75.0226799,38.8395351 C75.3375591,38.8395351 75.6047794,38.7489006 75.8235144,38.5676315 C76.0425248,38.3858115 76.1904602,38.1166628 76.2678715,37.759359" id="Fill-72" fill="#7B7B7B" mask="url(#mask-4)"/>
                    <path d="M79.5330557,37.5048661 L80.9749434,37.5048661 L80.5314128,36.3296477 C80.3955988,35.9728948 80.2950468,35.6795034 80.2294814,35.4494736 C80.1749354,35.7222036 80.0986261,35.9921787 79.999727,36.25995 L79.5330557,37.5048661 Z M78.3052197,39.2475832 L79.9393958,35.0040146 L80.5454625,35.0040146 L82.2865268,39.2475832 L81.645749,39.2475832 L81.1496008,37.9621709 L79.3699686,37.9621709 L78.9027463,39.2475832 L78.3052197,39.2475832 Z" id="Fill-73" fill="#7B7B7B" mask="url(#mask-4)"/>
                    <polygon id="Fill-74" fill="#7B7B7B" mask="url(#mask-4)" points="84.6260268 39.2476383 84.6260268 35.5049011 83.2249108 35.5049011 83.2249108 35.0040697 86.5968454 35.0040697 86.5968454 35.5049011 85.1896688 35.5049011 85.1896688 39.2476383"/>
                    <polygon id="Fill-75" fill="#7B7B7B" mask="url(#mask-4)" points="88.5187931 39.2476108 89.0821596 39.2476108 89.0821596 35.0040421 88.5187931 35.0040421"/>
                    <path d="M91.3754057,37.1895736 C91.3754057,37.7008735 91.5134236,38.1039079 91.7889085,38.3984012 C92.0643933,38.692619 92.4106778,38.8394524 92.8266599,38.8394524 C93.2500801,38.8394524 93.5991195,38.6909661 93.8726759,38.3937179 C94.1465079,38.0967453 94.2839748,37.674978 94.2839748,37.128416 C94.2839748,36.782958 94.225021,36.4815776 94.1076645,36.2245502 C93.9908589,35.9672474 93.8200583,35.7666944 93.5944362,35.6245442 C93.3688141,35.4832205 93.115919,35.4121454 92.8354754,35.4121454 C92.4371243,35.4121454 92.0935947,35.5490613 91.8065395,35.8215159 C91.5192088,36.0947968 91.3754057,36.5507243 91.3754057,37.1895736 M90.7952346,37.1807581 C90.7952346,36.4760679 90.9847682,35.9248227 91.3638354,35.5264716 C91.7434535,35.128396 92.2324391,34.9286695 92.8324451,34.9286695 C93.2247355,34.9286695 93.5792845,35.0228853 93.8949902,35.2099395 C94.2098694,35.3969937 94.4500922,35.6576024 94.6162095,35.992041 C94.7809495,36.3270306 94.8638704,36.7071997 94.8638704,37.1314463 C94.8638704,37.5620292 94.7770927,37.946606 94.6029863,38.2868298 C94.4291553,38.6259517 94.1820454,38.8838055 93.8622075,39.0579119 C93.543747,39.2331203 93.19884,39.319898 92.8294148,39.319898 C92.4285843,39.319898 92.070454,39.2237538 91.7550238,39.0309144 C91.4404201,38.8372486 91.2004728,38.5741605 91.0387632,38.2402729 C90.8765026,37.9066607 90.7952346,37.5529382 90.7952346,37.1807581" id="Fill-76" fill="#7B7B7B" mask="url(#mask-4)"/>
                    <polygon id="Fill-77" fill="#7B7B7B" mask="url(#mask-4)" points="96.832375 39.2476383 96.832375 35.0040697 97.4103422 35.0040697 99.6447998 38.3357835 99.6447998 35.0040697 100.183924 35.0040697 100.183924 39.2476383 99.6067829 39.2476383 97.3717743 35.9128942 97.3717743 39.2476383"/>
                    <path d="M102.187387,37.8841812 L102.718247,37.8378997 C102.744142,38.0502985 102.801994,38.2246804 102.89373,38.360219 C102.986018,38.496033 103.128444,38.6065024 103.322109,38.6905253 C103.515775,38.7739972 103.733133,38.8164219 103.975009,38.8164219 C104.190438,38.8164219 104.379696,38.7841902 104.543609,38.7208287 C104.708349,38.6574671 104.830389,38.5695875 104.910555,38.4588426 C104.991548,38.3478222 105.031217,38.2263333 105.031217,38.095478 C105.031217,37.9621434 104.992374,37.8456133 104.915514,37.7464387 C104.837827,37.6478152 104.710553,37.5643432 104.53259,37.4962985 C104.418539,37.4519454 104.165369,37.3827987 103.774456,37.2894094 C103.383818,37.19602 103.110262,37.1073139 102.953235,37.0246684 C102.750478,36.9183313 102.598686,36.786925 102.499236,36.6290722 C102.399786,36.4720458 102.349648,36.2957355 102.349648,36.1009677 C102.349648,35.8866405 102.410806,35.686914 102.53257,35.5006862 C102.654059,35.3147339 102.832573,35.1725837 103.066735,35.076164 C103.300622,34.9800198 103.560955,34.9315345 103.847184,34.9315345 C104.162614,34.9315345 104.441129,34.9822237 104.681903,35.0836021 C104.922676,35.1847051 105.108078,35.3337424 105.23728,35.5307141 C105.366758,35.7276857 105.437007,35.950553 105.446098,36.1995913 L104.906974,36.2400876 C104.877772,35.9720408 104.7797,35.7695594 104.611929,35.631817 C104.44471,35.494901 104.197325,35.4260298 103.870049,35.4260298 C103.529825,35.4260298 103.282164,35.4888404 103.12624,35.6133595 C102.970315,35.7378787 102.892904,35.8877424 102.892904,36.0635018 C102.892904,36.2161204 102.947725,36.3411905 103.057919,36.4398141 C103.16646,36.5387131 103.449659,36.6389896 103.906964,36.742021 C104.363993,36.8453278 104.678321,36.9359623 104.848296,37.0125471 C105.096232,37.1268733 105.279429,37.2706764 105.396786,37.4456093 C105.515244,37.6208176 105.574198,37.8216461 105.574198,38.0494721 C105.574198,38.2748187 105.51001,38.487493 105.379981,38.687495 C105.249952,38.8872215 105.064,39.0428705 104.821298,39.1530644 C104.578045,39.2643603 104.305039,39.3200082 104.000904,39.3200082 C103.616327,39.3200082 103.293184,39.2643603 103.033677,39.1519625 C102.773344,39.0401156 102.568658,38.8712434 102.420723,38.6472742 C102.272788,38.4219276 102.195101,38.1679306 102.187387,37.8841812" id="Fill-78" fill="#7B7B7B" mask="url(#mask-4)"/>
                    <path d="M111.03114,38.7466967 L112.090655,38.7466967 C112.273026,38.7466967 112.400024,38.740085 112.473303,38.7265863 C112.603056,38.703721 112.711597,38.6646022 112.798651,38.6108827 C112.885428,38.5568876 112.957054,38.478099 113.013253,38.3747921 C113.069177,38.2714853 113.097552,38.1527513 113.097552,38.0169373 C113.097552,37.858809 113.05678,37.7216175 112.975787,37.6050875 C112.894244,37.4880064 112.781846,37.4064629 112.636941,37.358804 C112.493413,37.3114206 112.285973,37.2877289 112.014896,37.2877289 L111.03114,37.2877289 L111.03114,38.7466967 Z M111.03114,36.7871729 L111.951259,36.7871729 C112.200848,36.7871729 112.379363,36.7711948 112.488179,36.7378611 C112.631431,36.6954365 112.738595,36.6251878 112.811323,36.5260133 C112.884051,36.4284916 112.920139,36.3050744 112.920139,36.1557616 C112.920139,36.0149889 112.88653,35.8912962 112.818761,35.7838571 C112.751267,35.6766935 112.654297,35.603139 112.5284,35.5640202 C112.402503,35.5249013 112.186799,35.5047909 111.881286,35.5047909 L111.03114,35.5047909 L111.03114,36.7871729 Z M110.468049,39.2475281 L110.468049,35.0039595 L112.064208,35.0039595 C112.38928,35.0039595 112.650164,35.0469351 112.84631,35.1328864 C113.042455,35.2188377 113.196726,35.3510704 113.308022,35.5295846 C113.419043,35.7080988 113.47469,35.8943265 113.47469,36.0896453 C113.47469,36.2709143 113.425654,36.4417149 113.32648,36.6020471 C113.228132,36.7618283 113.079094,36.8913062 112.879368,36.9896543 C113.137222,37.0648617 113.33502,37.1932376 113.473589,37.3750576 C113.611606,37.5557757 113.680753,37.7703784 113.680753,38.0169373 C113.680753,38.2163883 113.638604,38.4006877 113.554581,38.5714883 C113.470558,38.7428399 113.3667,38.8742462 113.242732,38.9670846 C113.118764,39.0596475 112.963942,39.1293451 112.776887,39.1767285 C112.589833,39.223561 112.361456,39.2475281 112.090655,39.2475281 L110.468049,39.2475281 Z" id="Fill-79" fill="#7B7B7B" mask="url(#mask-4)"/>
                    <path d="M116.113615,37.1895736 C116.113615,37.7008735 116.251082,38.1039079 116.526842,38.3984012 C116.802878,38.692619 117.148336,38.8394524 117.564318,38.8394524 C117.988289,38.8394524 118.337053,38.6909661 118.610885,38.3937179 C118.884717,38.0967453 119.021909,37.674978 119.021909,37.128416 C119.021909,36.782958 118.96323,36.4815776 118.845874,36.2245502 C118.728517,35.9672474 118.557441,35.7666944 118.332094,35.6245442 C118.106197,35.4832205 117.853853,35.4121454 117.572858,35.4121454 C117.174783,35.4121454 116.831528,35.5490613 116.544749,35.8215159 C116.256592,36.0947968 116.113615,36.5507243 116.113615,37.1895736 M115.533168,37.1807581 C115.533168,36.4760679 115.721876,35.9248227 116.101769,35.5264716 C116.481112,35.128396 116.970097,34.9286695 117.569828,34.9286695 C117.962669,34.9286695 118.316667,35.0228853 118.632373,35.2099395 C118.948079,35.3969937 119.188301,35.6576024 119.353868,35.992041 C119.519434,36.3270306 119.601804,36.7071997 119.601804,37.1314463 C119.601804,37.5620292 119.514751,37.946606 119.340645,38.2868298 C119.166263,38.6259517 118.919979,38.8838055 118.600692,39.0579119 C118.281681,39.2331203 117.937049,39.319898 117.567349,39.319898 C117.166518,39.319898 116.808663,39.2237538 116.493233,39.0309144 C116.178078,38.8372486 115.938958,38.5741605 115.776422,38.2402729 C115.614987,37.9066607 115.533168,37.5529382 115.533168,37.1807581" id="Fill-80" fill="#7B7B7B" mask="url(#mask-4)"/>
                    <path d="M122.335964,37.5048661 L123.778402,37.5048661 L123.334596,36.3296477 C123.198782,35.9728948 123.09823,35.6795034 123.032665,35.4494736 C122.978394,35.7222036 122.90181,35.9921787 122.802911,36.25995 L122.335964,37.5048661 Z M121.108128,39.2475832 L122.742304,35.0040146 L123.348922,35.0040146 L125.089986,39.2475832 L124.448657,39.2475832 L123.952509,37.9621709 L122.172877,37.9621709 L121.70593,39.2475832 L121.108128,39.2475832 Z" id="Fill-81" fill="#7B7B7B" mask="url(#mask-4)"/>
                    <path d="M127.360615,36.8769534 L128.57082,36.8769534 C128.828122,36.8769534 129.029226,36.8502314 129.174407,36.7970628 C129.319312,36.7441697 129.429781,36.6595959 129.504989,36.5425148 C129.580747,36.4257092 129.618213,36.2989862 129.618213,36.1617948 C129.618213,35.9609663 129.545485,35.7962264 129.398927,35.6667485 C129.25292,35.5372706 129.022339,35.4725317 128.706909,35.4725317 L127.360615,35.4725317 L127.360615,36.8769534 Z M126.797248,39.2475006 L126.797248,35.0039319 L128.684044,35.0039319 C129.063111,35.0039319 129.351819,35.0416733 129.549066,35.1182581 C129.746314,35.1945674 129.903891,35.329004 130.022074,35.5218434 C130.139706,35.7152338 130.199211,35.9287346 130.199211,36.1617948 C130.199211,36.4628997 130.101413,36.7166213 129.905544,36.9229594 C129.710776,37.1290221 129.408569,37.2612548 129.000301,37.3163518 C129.149338,37.3879778 129.261736,37.458502 129.339698,37.5279241 C129.503887,37.6788898 129.659811,37.8673215 129.807196,38.0923926 L130.547423,39.2475006 L129.838876,39.2475006 L129.276061,38.3640207 C129.11077,38.1097482 128.976333,37.9155313 128.869445,37.7799928 C128.763384,37.6441788 128.667515,37.5502384 128.583492,37.4962434 C128.499745,37.4425238 128.414069,37.4047824 128.327016,37.3835701 C128.262552,37.3697958 128.158419,37.3631842 128.013514,37.3631842 L127.360615,37.3631842 L127.360615,39.2475006 L126.797248,39.2475006 Z" id="Fill-82" fill="#7B7B7B" mask="url(#mask-4)"/>
                    <path d="M132.892654,38.7466967 L133.801203,38.7466967 C134.081371,38.7466967 134.302034,38.7208011 134.461264,38.668459 C134.62077,38.6166678 134.74832,38.5433889 134.842811,38.4486221 C134.976421,38.3158384 135.080279,38.1367732 135.154935,37.9114266 C135.229316,37.686631 135.267058,37.4141765 135.267058,37.0937876 C135.267058,36.6499815 135.193779,36.3092067 135.047496,36.0703613 C134.901214,35.8323424 134.723526,35.6725612 134.515259,35.5915687 C134.364018,35.5339923 134.121316,35.5047909 133.786602,35.5047909 L132.892654,35.5047909 L132.892654,38.7466967 Z M132.329563,39.2475281 L132.329563,35.0039595 L133.795142,35.0039595 C134.125724,35.0039595 134.378619,35.0243453 134.55245,35.0651171 C134.796254,35.120765 135.004245,35.221868 135.176423,35.3689769 C135.400943,35.5585105 135.569264,35.7998352 135.679734,36.0937775 C135.791305,36.3882709 135.847229,36.7243624 135.847229,37.1026031 C135.847229,37.4251958 135.809487,37.7105982 135.734004,37.9599119 C135.658797,38.2083993 135.561551,38.4147374 135.443919,38.5778245 C135.32546,38.7409115 135.196533,38.868461 135.056036,38.9618504 C134.915814,39.0560662 134.746667,39.1274168 134.548318,39.1753511 C134.349968,39.223561 134.122142,39.2475281 133.865115,39.2475281 L132.329563,39.2475281 Z" id="Fill-83" fill="#7B7B7B" mask="url(#mask-4)"/>
                </g>
                <g id="signet">
                    <path d="M20.4684946,1.62508515 C19.5942183,1.05074932 18.6978031,0.508344687 17.7798876,1.77635684e-15 C16.8615463,0.508344687 15.9651311,1.05074932 15.0908549,1.62508515 C16.0085576,2.08553304 16.9058243,2.58025375 17.7798876,3.10967302 C18.6533123,2.58025375 19.5512176,2.08553304 20.4684946,1.62508515" id="Fill-1" fill="#039043"/>
                    <path d="M15.4470368,8.00019159 C16.248297,8.50215003 17.0263539,9.03582681 17.7799302,9.60143478 C18.5328678,9.03582681 19.3111376,8.50215003 20.1117592,8.00019159 C20.9253661,7.4892924 21.7611121,7.01160167 22.6196356,6.5703125 C23.4943375,6.12114697 24.3928815,5.71115037 25.310797,5.33840685 C24.5565821,4.66700017 23.7785252,4.0241187 22.9766264,3.40848518 C22.0599881,3.82401652 21.1652759,4.27807817 20.2914254,4.76556114 C19.4318375,5.244742 18.5939629,5.75670555 17.7799302,6.30187755 C16.9654717,5.75670555 16.1278099,5.244742 15.2688607,4.76556114 C14.3943716,4.27807817 13.4998723,3.82401652 12.5830211,3.40848518 C11.7811223,4.0241187 11.0028525,4.66700017 10.2486376,5.33840685 C11.1665531,5.71115037 12.0646713,6.12114697 12.9395862,6.5703125 C13.7985354,7.01160167 14.6342813,7.4892924 15.4470368,8.00019159" id="Fill-3" fill="#FF1E00"/>
                    <path d="M11.3217388,11.8146926 C12.1236376,12.2613036 12.9010559,12.7449549 13.6520777,13.2652205 C14.397139,13.7801643 15.1155909,14.3302325 15.8057306,14.9126575 C16.49289,15.4921024 17.1513113,16.1039041 17.7799302,16.7452955 C18.4083362,16.1039041 19.0667575,15.4921024 19.753704,14.9126575 C20.4438437,14.3302325 21.1627214,13.7801643 21.9073569,13.2652205 C22.6585916,12.7449549 23.435797,12.2613036 24.2370572,11.8146926 C25.0502384,11.3621211 25.8887517,10.9476541 26.7483396,10.5746977 C27.6238931,10.1959937 28.5215855,9.85880024 29.4405654,9.56886495 C28.8072633,8.82103627 28.1477776,8.09619806 27.4640242,7.39498893 C26.5465344,7.7262219 25.6490548,8.09981693 24.7739271,8.51300664 C23.9141264,8.91917149 23.0773161,9.36237653 22.2634963,9.84262176 C21.4624489,10.3156293 20.6835405,10.8218452 19.9310286,11.3629726 C19.1891604,11.8957979 18.4713471,12.4603415 17.7799302,13.055539 C17.0880875,12.4603415 16.3704871,11.8957979 15.6286189,11.3629726 C14.8754683,10.8218452 14.0971986,10.3156293 13.2961512,9.84262176 C12.4823314,9.36237653 11.6448825,8.91917149 10.7857204,8.51300664 C9.91059264,8.09981693 9.0129002,7.7262219 8.09519755,7.39498893 C7.41144414,8.09619806 6.75217132,8.82103627 6.11844346,9.56886495 C7.03721049,9.85880024 7.93575443,10.1959937 8.81109503,10.5746977 C9.67047003,10.9476541 10.5085576,11.3621211 11.3217388,11.8146926" id="Fill-5" fill="#039043"/>
                    <path d="M10.9538913,21.3983098 C10.2746083,20.7982161 9.55679496,20.2404845 8.80066417,19.7342686 C8.05624149,19.2361419 7.27733311,18.787615 6.46691928,18.390178 C5.6586342,17.9938053 4.81863079,17.6523544 3.95457255,17.3649736 C3.08008345,17.0750383 2.17983651,16.8432178 1.25681199,16.6735567 C0.810200954,17.4980203 0.391476499,18.3399395 0,19.19676 C0.923237398,19.324272 1.82412296,19.521181 2.69563181,19.7870615 C3.5635218,20.0518776 4.40395095,20.380556 5.20925579,20.7709682 C6.02435286,21.1660635 6.80326124,21.6248084 7.54214918,22.1376235 C8.30679496,22.6670427 9.02567268,23.2575571 9.69516349,23.8991613 C10.4151056,24.5893009 11.0773587,25.3388326 11.6708532,26.1422216 C12.0421066,25.2042958 12.4629598,24.2910635 12.9287296,23.4061436 C12.3169278,22.6913105 11.6580807,22.0207553 10.9538913,21.3983098" id="Fill-7" fill="#FF1E00"/>
                    <g id="Group-11" transform="translate(2.696994, 11.847071)">
                        <mask id="mask-6" fill="white">
                            <use xlink:href="#path-5"/>
                        </mask>
                        <g id="Clip-10"/>
                        <path d="M13.2872105,42.4482715 C13.9220027,41.7919789 14.5214578,41.1014135 15.0830211,40.3808328 C15.6439458,41.1014135 16.2434009,41.7919789 16.8781931,42.4482715 C16.3115208,43.1482033 15.7120657,43.8208873 15.0830211,44.4637687 C14.4524864,43.8208873 13.8538828,43.1482033 13.2872105,42.4482715 M13.64633,32.158549 C12.8365548,29.8141604 12.3901567,27.3005364 12.3901567,24.6809009 C12.3901567,22.0610525 12.8365548,19.5467899 13.64633,17.2030399 C14.0409997,16.0616059 14.5206063,14.9597667 15.0830211,13.907953 C15.6450102,14.9597667 16.1237653,16.0616059 16.5184349,17.2030399 C17.3292745,19.5467899 17.7752469,22.0610525 17.7752469,24.6809009 C17.7752469,27.3005364 17.3292745,29.8141604 16.5184349,32.158549 C16.1237653,33.2993443 15.6450102,34.4020351 15.0830211,35.4532101 C14.5206063,34.4020351 14.0409997,33.2993443 13.64633,32.158549 M18.4964663,40.2375681 C17.8535848,39.5450869 17.2560456,38.8119465 16.7027844,38.0443205 C17.2322037,37.1813266 17.7124489,36.2840599 18.1381982,35.3574166 C18.6303644,34.286657 19.0510048,33.175877 19.393733,32.0310371 C20.0913232,29.7030399 20.4674728,27.2360354 20.4674728,24.6809009 C20.4674728,22.1255535 20.0913232,19.6587619 19.393733,17.3309775 C19.0510048,16.1867762 18.6303644,15.0745061 18.1381982,14.0043852 C17.7124489,13.0773161 17.2322037,12.1804751 16.7027844,11.3174813 C17.2560456,10.5494295 17.8535848,9.81714067 18.4964663,9.12423365 C19.1165702,8.45559435 19.7762687,7.82548535 20.4717302,7.2345453 C21.1559094,6.65361035 21.8728713,6.1105671 22.6230416,5.61222752 C23.3710831,5.11431369 24.1510559,4.66238079 24.9576379,4.25536444 C25.7689033,3.8440906 26.6044363,3.47581744 27.4665787,3.16374319 C28.3421322,2.84634707 29.2434435,2.58493699 30.1656165,2.37504257 C29.6513113,1.56377725 29.1093324,0.772735014 28.5424472,6.05026171e-15 C27.6226158,0.250766349 26.7234332,0.549003747 25.8470283,0.896415191 C24.9868018,1.23871764 24.1489271,1.6263624 23.3370232,2.05615634 C22.5334213,2.4814799 21.7540872,2.94639816 21.0039169,3.45154973 C20.2575783,3.95457255 19.5399779,4.49591281 18.8523927,5.07280313 C18.1624659,5.65097071 17.5029802,6.26575272 16.8781931,6.91331744 C16.2434009,7.56982289 15.6439458,8.25974966 15.0830211,8.98075613 C14.5214578,8.25974966 13.9220027,7.56982289 13.2872105,6.91331744 C12.6617847,6.26575272 12.0029377,5.65097071 11.3130109,5.07280313 C10.6252129,4.49591281 9.9076124,3.95457255 9.16127384,3.45154973 C8.41131642,2.94639816 7.63219516,2.4814799 6.82838045,2.05615634 C6.01668937,1.6263624 5.17860184,1.23871764 4.31752384,0.896415191 C3.44218324,0.549003747 2.54300068,0.250766349 1.62338215,6.05026171e-15 C1.05607119,0.772735014 0.514092302,1.56377725 1.51256543e-15,2.37504257 C0.921747275,2.58493699 1.82348433,2.84634707 2.69882493,3.16374319 C3.5609673,3.47581744 4.39650034,3.8440906 5.20755279,4.25536444 C6.013922,4.66238079 6.7943205,5.11431369 7.54257493,5.61222752 C8.29231948,6.1105671 9.00949421,6.65361035 9.69346049,7.2345453 C10.3884963,7.82548535 11.0490463,8.45559435 11.6689373,9.12423365 C12.3113931,9.81714067 12.9099966,10.5494295 13.463045,11.3174813 C12.9331999,12.1804751 12.4533804,13.0773161 12.0274183,14.0043852 C11.5346134,15.0745061 11.1146117,16.1867762 10.7716706,17.3309775 C10.0742933,19.6587619 9.69771798,22.1255535 9.69771798,24.6809009 C9.69771798,27.2360354 10.0742933,29.7030399 10.7716706,32.0310371 C11.1146117,33.175877 11.5346134,34.286657 12.0274183,35.3574166 C12.4533804,36.2840599 12.9331999,37.1813266 13.463045,38.0443205 C12.9099966,38.8119465 12.3113931,39.5450869 11.6689373,40.2375681 C11.0490463,40.9064203 10.3884963,41.5367422 9.69346049,42.126405 C10.2030824,42.8708277 10.7429326,43.5922599 11.3130109,44.2894244 C11.8824506,44.9840344 12.4816928,45.653951 13.1088215,46.2961938 C13.7393563,46.9426941 14.3979905,47.5632238 15.0830211,48.1528866 C15.7674131,47.5632238 16.4254087,46.9426941 17.056795,46.2961938 C17.683498,45.653951 18.282953,44.9840344 18.8523927,44.2894244 C19.4226839,43.5922599 19.9627469,42.8708277 20.4717302,42.126405 C19.7762687,41.5367422 19.1165702,40.9064203 18.4964663,40.2375681" id="Fill-9" fill="#1D1D1B" mask="url(#mask-6)"/>
                    </g>
                    <path d="M35.5595198,19.1966962 C35.1678304,18.3400886 34.7493188,17.4979564 34.3024949,16.6734928 C33.3798961,16.843154 32.4794363,17.0749745 31.6049472,17.3651226 C30.740889,17.6525034 29.9006727,17.9937415 29.0923876,18.3901141 C28.2821866,18.7875511 27.503704,19.236078 26.7584298,19.7342047 C26.0025119,20.2406335 25.2846986,20.7981522 24.6054155,21.3982459 C23.9016519,22.0209043 23.2428048,22.6912466 22.6314288,23.4060797 C23.0967728,24.2912125 23.5172003,25.2042319 23.8882408,26.1421577 C24.482374,25.3389816 25.1442013,24.5894499 25.8643563,23.8990974 C26.5334213,23.2577061 27.2520862,22.6671918 28.0167319,22.1375596 C28.7562585,21.6249574 29.534954,21.1659997 30.3500511,20.7709043 C31.1555688,20.3804922 31.9955722,20.0520266 32.8638879,19.7869976 C33.734971,19.5211172 34.6362824,19.324421 35.5595198,19.1966962" id="Fill-12" fill="#FF1E00"/>
                </g>
            </g>
        </g>
    </g>
</svg>
